<svg xmlns="http://www.w3.org/2000/svg" width="233" height="630" viewBox="0 0 233 630">
    <g fill="none" fill-rule="evenodd">
        <g fill-rule="nonzero">
            <path fill="#EDAF80" d="M213.65 185.106s16.602 12.152 17.662 14.837c1.06 2.685 3.745 4.31-3.886 17.592-7.63 13.353-21.972 40.2-28.825 48.184 0 0-6.854-5.087-2.826-18.581 4.027-13.565 10.385-34.407 15.755-40.13 0 0-4.734-2.12-8.125-6.147-3.462-3.956 10.244-15.755 10.244-15.755z"/>
            <g opacity=".2">
                <path fill="#9E4C28" d="M205.948 255.051c7.136-11.516 16.038-27.978 21.478-37.516 7.63-13.353 4.946-14.907 3.886-17.592-1.06-2.685-17.663-14.837-17.663-14.837s-.424.354-.989.919l-6.641 17.38c.495.424.99.777 1.413 1.13 2.685-1.13 7.206-4.027 10.033-11.163 0 0 12.858 7.207 10.456 14.13-1.908 5.158-15.049 32.924-21.973 47.549z"/>
                <path fill="#FCFCFC" d="M195.704 247.209c-1.201 3.956-1.413 7.206-1.201 9.82 1.907-6.994 10.598-37.94 16.956-50.02-5.37 5.793-11.728 26.635-15.755 40.2z"/>
            </g>
            <path fill="#CC885A" d="M211.53 207.008c.848-.282 1.695-.494 2.473-.848.777-.353 1.554-.706 2.26-1.2 1.484-.849 2.826-1.908 4.169-3.039-.424.777-1.06 1.413-1.696 2.05-.636.635-1.342 1.13-2.12 1.624-.776.495-1.554.848-2.472 1.06-.848.282-1.766.353-2.614.353zM195.421 249.681a7.785 7.785 0 0 1 1.413 1.979c.424.706.707 1.483.99 2.26.494 1.555.777 3.25.565 4.875l-.566-2.402-.635-2.331c-.212-.777-.495-1.484-.778-2.261-.353-.565-.706-1.342-.989-2.12z"/>
        </g>
        <g fill-rule="nonzero">
            <path fill="#EDAF80" d="M118.27 127.95s12.082 28.754-9.679 24.374c0 0-3.462 25.364 25.717 25.364s21.054-23.244 20.56-23.103c-.424.141-23.386-.707-10.386-25.646l-26.212-.99z"/>
            <path fill="#9E4C28" d="M137.77 177.547l17.38-9.821c.99-2.543 1.201-5.157 1.06-7.418l-2.12-5.723c-2.12-.141-7.842-1.06-11.163-5.087.495 1.13 1.484 2.685 3.392 4.522 3.886 3.674 2.614 10.173.353 12.717-2.26 2.473-19.712 12.01-34.972-5.51l1.413 7.912 24.092 8.478c.212-.07.353-.07.565-.07z" opacity=".2"/>
            <path fill="#9E4C28" d="M144.482 142.433c.565-2.685-1.837-9.962 0-13.494l-26.212-.99s-8.195 17.734-7.206 21.549c2.543 1.908 15.896 2.614 21.478 1.908 9.608-1.272 12.152-7.066 11.94-8.973z" opacity=".35"/>
        </g>
        <g fill-rule="nonzero">
            <g fill="#C67C66">
                <path d="M176.275 102.868l-39.777 29.109c.353.07 35.82 6.853 49.81 23.173 0 0 9.679-14.907 11.233-33.135 0 0 3.25 19.429 1.554 37.162 0 0 11.728-21.124 5.228-60.76v-.07c-.494-5.087 1.13-11.305 1.484-13.707.353-2.331-7.7-3.886-7.7-3.674-.072.212-2.756 7.701-2.756 7.701l-19.076 14.201z"/>
                <path d="M159.813 137.7c7.984 3.037 20.842 10.88 26.494 17.45 0 0 3.18-6.005 4.805-15.402 2.12-11.799 1.13-24.021 1.13-24.021-2.473 20.277-7.842 29.532-8.054 29.956 3.956-6.359 2.755-22.538 2.755-22.538-2.685 16.462-7.842 20.418-7.842 20.418.848-1.837.777-15.614.777-15.614-.565 6.712-5.228 12.152-5.228 12.152-3.603-1.766-10.81-2.684-14.837-2.402zM75.88 83.651c1.695-5.51 3.532-17.663 3.532-17.663.99-2.896 1.13-3.108 1.766-6.57.707-3.462 9.538 1.13 9.538 1.13l.565 3.886 9.114 25.576 24.446 39.988c-27.978-6.146-33.63 4.38-33.63 4.38-9.468-11.304-17.24-38.434-17.24-38.434"/>
                <path d="M124.911 129.998L100.466 90.01l-9.114-25.576-.565-3.886s-1.908.495-3.038 2.049c-3.038 8.478-10.668 23.315-5.228 38.222 0 0-1.767-17.592 3.462-22.961-.424.424-2.05 30.521 8.548 43.803 0 0-5.228-13.211-4.875-20.842 0 0 4.593 18.794 9.892 22.82 0 0 15.684 1.979 16.39 4.805 2.827.353 5.794.848 8.973 1.554z"/>
            </g>
            <path fill="#422721" d="M176.275 102.868l-39.777 29.109c.353.07 35.82 6.853 49.81 23.173 0 0 9.679-14.907 11.233-33.135 0 0 3.25 19.429 1.554 37.162 0 0 11.728-21.124 5.228-60.76v-.07c-.494-5.087 1.13-11.305 1.484-13.707.353-2.331-7.7-3.886-7.7-3.674-.072.212-2.756 7.701-2.756 7.701l-19.076 14.201z"/>
            <path fill="#513225" d="M159.813 137.7c7.984 3.037 20.842 10.88 26.494 17.45 0 0 3.18-6.005 4.805-15.402 2.12-11.799 1.13-24.021 1.13-24.021-2.473 20.277-7.842 29.532-8.054 29.956 3.956-6.359 2.755-22.538 2.755-22.538-2.685 16.462-7.842 20.418-7.842 20.418.848-1.837.777-15.614.777-15.614-.565 6.712-5.228 12.152-5.228 12.152-3.603-1.766-10.81-2.684-14.837-2.402zM75.88 83.651c1.695-5.51 3.532-17.663 3.532-17.663.99-2.896 1.13-3.108 1.766-6.57.707-3.462 9.538 1.13 9.538 1.13l.565 3.886 9.114 25.576 24.446 39.988c-27.978-6.146-33.63 4.38-33.63 4.38-9.468-11.304-17.24-38.434-17.24-38.434"/>
            <path fill="#422721" d="M124.911 129.998L100.466 90.01l-9.114-25.576-.565-3.886s-1.908.495-3.038 2.049c-3.038 8.478-10.668 23.315-5.228 38.222 0 0-1.767-17.592 3.462-22.961-.424.424-2.05 30.521 8.548 43.803 0 0-5.228-13.211-4.875-20.842 0 0 4.593 18.794 9.892 22.82 0 0 15.684 1.979 16.39 4.805 2.827.353 5.794.848 8.973 1.554z"/>
            <path fill="#EDAF80" d="M201.427 91.493c.706-12.929-7.913-8.902-7.913-8.902 4.45-26.918-4.098-36.738-4.098-36.738-7.913-10.457-37.233-18.582-37.233-18.582s-30.239-3.532-41.543 3.18c0 0-11.658 5.793-17.663 32.429 0 0-6.5-6.995-10.668 5.298-4.24 12.294 5.652 27.342 11.375 21.408 0 0 3.744 15.967 13.14 26.635 9.397 10.669 17.734 17.875 24.234 19.147 6.5 1.271 16.886-2.261 29.603-8.549 12.788-6.359 22.184-19.712 22.184-19.712 3.038 7.56 17.805-2.684 18.582-15.614z"/>
            <path fill="#9E4C28" d="M116.221 36.95l-4.592 13.071c-4.168 3.32-9.75 7.842-9.75 7.842l4.592-12.364s-8.831 8.902-12.505 12.859c-.424 1.413-.777 2.897-1.13 4.522 0 0-.212-.212-.565-.495-.283 6.288-1.272 24.375-1.272 24.375-6.57.918-8.761-11.163-9.467-15.967-2.12 11.657 6.64 24.233 11.94 18.793 0 0 3.744 15.967 13.14 26.635 6.995 7.913 13.354 13.919 18.794 16.957.424.212 1.908 1.13 3.533 1.625-6.006-4.522-10.316-11.234-17.451-23.315-14.484-25.435 1.695-28.473 1.695-28.473l-3.32-5.157c-3.886-5.794-1.06-12.294 1.06-15.756M192.454 97.499s3.462-10.669 7.418-7.136c0 0 1.13-4.663-5.298-2.755-6.43 1.907-1.979 7.277-2.12 9.89z" opacity=".2"/>
            <path fill="#9E4C28" d="M201.497 91.847c-4.097 10.527-13.423 14.978-14.766 14.412-1.413-.635 2.05-8.902 2.332-9.255 0 0-5.087 7.984-6.995 11.163l.848-1.06c3.109 7.56 17.663-2.473 18.581-15.26zM190.052 90.857c-1.343 2.05 4.45-6.358 6.217-8.83a8.17 8.17 0 0 0-2.614.564c1.342-7.983 1.484-14.413 1.06-19.57-2.756-2.614-21.973-21.76-33.065-32.712-5.44-1.907-9.397-3.038-9.397-3.038s-3.603-.424-8.831-.706L116.433 36.95 93.048 41.19l-1.413 23.95s8.76-3.461 19.5-3.038c.989 0 1.978.071 2.967.354 0-.636 6.076-12.859 11.516-17.804 0 0-7.277 16.108-7.913 17.874 0 0 5.51-.212 8.266.212 0 0 5.511-14.413 15.897-24.021 0 0-9.962 21.407-10.174 24.87 3.532.282 9.891 1.27 9.891 1.27s2.12-15.472 9.962-26.917c7.842-11.446 3.744.07 3.744.07s-5.51 26.707-5.228 28.12c0 0 8.054 1.06 10.457 1.907-.212-.989 1.907-19.429 1.907-19.429s5.935 7.206 5.723 7.56c-.212.353-1.696 13.282-1.696 13.282s5.864 1.554 8.478 3.815c0-.636-.565-7.842-.565-7.842l1.767 2.473 1.413 6.288s5.722 2.049 7.7 3.532c-.353-.353-1.766-1.837-.14-14.2 0 0 3.744 15.684 3.956 16.108 0 0 3.179 2.19 2.755 4.38-.424 2.332-.212 4.451-1.766 6.853" opacity=".2"/>
            <path fill="#A86756" d="M90.08 84.852c-.706-.777-1.342-1.625-1.837-2.614-.494-.99-.847-2.049-.918-3.109 0-.282-.07-.565 0-.847l.141-.848c.142-.565.283-1.13.565-1.625.212-.565.566-.99.919-1.413.353-.424.777-.777 1.201-1.201l-.07.07c.282-.282.353-.777.353-1.342 0-.565-.142-1.13-.354-1.696-.424-1.13-1.13-2.19-1.837-3.038a4.722 4.722 0 0 0-1.13-.989c-.424-.141-.707-.212-1.13-.07-.424.212-.848.635-1.272 1.13-.424.495-.707 1.06-1.13 1.696l-.213-.071c.071-.707.142-1.413.424-2.12.212-.706.566-1.413 1.272-1.978.707-.565 1.837-.777 2.755-.494.848.282 1.555.777 2.12 1.342 1.06 1.13 1.696 2.543 2.049 4.027.141.707.283 1.484.212 2.332-.07.777-.283 1.695-.99 2.402l-.07.07c-.353.283-.777.566-1.06.919-.282.353-.636.706-.847 1.13-.283.354-.424.848-.636 1.272l-.142.707c-.07.211-.07.494-.07.706-.071.99.141 1.978.494 2.897.354.918.848 1.907 1.413 2.684l-.212.071zM187.72 103.787c.848-.566 1.696-1.201 2.332-1.979a7.964 7.964 0 0 0 1.554-2.543c.07-.212.141-.424.212-.707l.141-.706c0-.495.071-.918-.07-1.413a4.262 4.262 0 0 0-.424-1.342c-.141-.424-.424-.848-.636-1.272v-.07c-.424-.92-.283-1.838-.07-2.615a9.346 9.346 0 0 1 1.06-2.049c.847-1.2 1.977-2.26 3.39-2.896.707-.283 1.555-.566 2.473-.495.919 0 1.908.636 2.332 1.484.424.777.494 1.625.424 2.331 0 .707-.212 1.413-.424 2.12h-.212c-.142-.707-.212-1.343-.424-1.979-.142-.635-.424-1.2-.707-1.554-.353-.353-.636-.424-1.06-.424-.423.07-.918.212-1.483.495-.99.565-2.049 1.271-2.826 2.12-.424.423-.777.918-.99 1.412-.211.495-.282.99-.14 1.343v-.071c.211.495.494.99.635 1.554.142.566.283 1.06.353 1.696.071.565 0 1.13-.07 1.696l-.212.847c-.07.283-.212.495-.353.778-.495.989-1.201 1.837-2.05 2.543a9.61 9.61 0 0 1-2.684 1.696h-.07z"/>
            <path fill="#FCFCFC" d="M185.389 100.325c.212-.353 4.027-9.75 4.027-9.75s-20.489 37.516-55.39 45.005c6.5-.07 15.684-3.392 26.635-8.832 11.516-5.722 20.347-17.168 21.972-19.358 1.343-3.533 2.685-6.924 2.756-7.065z" opacity=".2"/>
            <g>
                <path fill="#D8886C" d="M132.542 102.303s1.13-1.201 3.391.565c2.331 1.696 3.18 2.19 7.206.142 1.272-.566 2.261 1.13 2.261 1.695 0 0-3.038 5.016-8.195 4.31-5.087-.777-4.663-6.712-4.663-6.712z"/>
                <path fill="#A86756" d="M131.906 101.667c.424-.282.918-.353 1.413-.282.494.07.989.211 1.342.494.848.565 1.413 1.484 1.272 2.473-.495-.212-.777-.495-1.13-.707l-.919-.635-.918-.636-1.06-.707zM145.824 104.564l-1.272.282-1.13.212-1.13.212c-.424.071-.778.142-1.343.212.283-.989 1.201-1.625 2.12-1.837.494-.07.989-.07 1.483.071.495.212.99.424 1.272.848z"/>
                <path fill="#A86756" d="M144.976 86.265c-.918 1.696-1.695 3.462-2.19 5.299-.494 1.837-.706 3.745-.07 5.37.07.211.14.353.282.565l.353.565c.283.494.495.989.707 1.484.353 1.06.282 2.402-.283 3.462s-1.413 1.766-2.331 2.26c-.919.495-1.908.778-2.897.919l-.07-.141c.777-.566 1.554-1.13 2.26-1.767.636-.636 1.201-1.271 1.484-1.978a4.09 4.09 0 0 0 .212-2.26c-.07-.425-.212-.778-.353-1.202l-.354-.706c-.07-.283-.212-.495-.282-.778-.565-2.12-.142-4.239.565-6.076a20.584 20.584 0 0 1 2.897-5.157l.07.141z"/>
                <path fill="#FCBDA7" d="M134.52 95.662s-.424 2.331-1.13 2.967c-.636.636-.424 2.544.989 2.756 0 0-3.462.353-2.402-2.544.777-1.554 1.907-1.696 2.543-3.18z"/>
            </g>
            <g>
                <path fill="#FFF" d="M173.59 90.504s-.424 3.391-5.51 3.109c-3.463-.353-4.664-.919-9.185-.283-1.767.283-4.027 0-5.229-1.413-1.2-1.413 1.202-4.521 3.18-5.934 3.532-2.615 8.972-5.087 16.744 4.521z"/>
                <g transform="translate(155.433 83.368)">
                    <path fill="#723A24" d="M1.413 2.543C.918 2.897.423 3.321 0 3.815c.212 2.05 1.766 3.815 3.886 4.24 2.614.494 5.157-1.202 5.723-3.816.282-1.413-.071-2.826-.919-3.886-2.967-.494-5.37.848-7.277 2.19z"/>
                    <circle cx="4.804" cy="3.25" r="2.402" fill="#000"/>
                    <path fill="#FFF" d="M3.533 3.038c.847.141 1.695-.353 1.836-1.201.071-.424 0-.848-.282-1.201-.99.282-1.908.777-2.756 1.342.212.495.636.919 1.202 1.06z"/>
                </g>
                <path fill="#000" d="M173.59 90.504c-.07.848-.565 1.555-1.201 2.12-.636.565-1.413.848-2.26 1.06-1.626.353-3.321-.071-4.876-.283a18.282 18.282 0 0 0-4.804-.212c-.777.07-1.625.212-2.402.212-.848 0-1.625-.07-2.402-.283a6.938 6.938 0 0 0 2.402.212c.777-.07 1.625-.212 2.402-.282 1.625-.212 3.25-.142 4.875.07.777.071 1.625.212 2.402.283.777.07 1.625.07 2.402-.07.777-.142 1.555-.425 2.19-.849.566-.494 1.06-1.2 1.272-1.978zM175.356 89.798s-.07.07-.282.141c-.212.07-.495.212-.919.283-.212 0-.494.07-.777-.071-.07-.07-.212-.07-.212-.141l-.141-.142c-.07-.07-.212-.14-.283-.282-.353-.353-.848-.777-1.342-1.201-.495-.424-.99-.919-1.625-1.343-.565-.424-1.201-.918-1.908-1.342-.636-.424-1.413-.777-2.12-1.13-.776-.283-1.554-.495-2.401-.495-.848-.07-1.696.07-2.473.283-.777.212-1.554.565-2.261.918-.706.353-1.413.848-1.978 1.272-.565.424-1.13.918-1.555 1.413-.847.989-1.413 1.978-1.554 2.685-.07.423 0 .918.141 1.2 0 0-.07-.07-.212-.282-.14-.212-.211-.495-.211-.918.07-.848.565-1.908 1.413-2.968.423-.565.918-1.06 1.483-1.625.565-.494 1.272-.989 1.978-1.413.707-.424 1.555-.848 2.403-1.13.847-.283 1.837-.495 2.755-.495.918 0 1.908.142 2.826.424.919.283 1.766.636 2.473 1.13 1.484.919 2.614 2.12 3.532 3.11.424.494.848.988 1.13 1.483.707.706 2.05.636 2.12.636"/>
                <path fill="#000" d="M175.074 87.678s-.707 1.837-1.837 1.555c-1.13-.283-2.12-2.756-2.12-2.756s2.332 1.696 3.957 1.201z"/>
                <path fill="#020000" d="M175.074 92.2c-.353 0-.636-.07-.919-.141l-.848-.212c.142-.142.283-.142.495-.212.141 0 .353 0 .495.07.282.071.565.212.777.495zM174.509 93.754c-.354-.212-.636-.424-.919-.565a1.478 1.478 0 0 1-.424-.283 3.444 3.444 0 0 0-.494-.212c.353-.14.777 0 1.13.212.283.142.565.424.707.848zM171.612 93.472c.212 0 .353 0 .565.07.212.07.353.142.495.283.282.212.494.565.565.918-.141-.141-.283-.212-.424-.353l-.353-.353c-.283-.142-.566-.353-.848-.565zM170.34 93.966c.283 0 .495.141.636.353.141.212.283.424.212.707a3.073 3.073 0 0 1-.495-.424c-.14-.212-.282-.424-.353-.636zM168.645 94.037c.211 0 .353.141.423.282.071.071.071.142.071.283 0 .07 0 .212-.07.283l-.354-.354c0-.14-.07-.282-.07-.494z"/>
                <g>
                    <path fill="#FFF" d="M106.966 77.504s-.918 3.321 3.956 4.946c3.321.99 4.663.918 8.62 3.18 1.484.918 3.674 1.483 5.37.635 1.624-.848.565-4.663-.707-6.712-2.332-3.744-6.43-8.125-17.239-2.049z"/>
                    <g transform="translate(110.216 74.184)">
                        <path fill="#723A24" d="M9.891 1.201C7.842.141 4.946-.212.848 1.342c-.07.283-.212.495-.212.778-.495 2.614 1.2 5.157 3.815 5.722 2.614.565 5.158-1.2 5.723-3.815.212-.989.07-1.907-.283-2.826z"/>
                        <circle cx="5.44" cy="3.109" r="2.402" fill="#000"/>
                        <path fill="#FFF" d="M3.038.707c-.07.07-.07.211-.07.282-.142.848.353 1.696 1.2 1.837.848.141 1.696-.353 1.837-1.201.071-.495-.07-.918-.353-1.272-.848 0-1.696.142-2.614.354z"/>
                    </g>
                    <path fill="#000" d="M106.966 77.504c-.141.778.07 1.625.495 2.261.423.707.989 1.201 1.695 1.625.636.424 1.413.707 2.19.99l2.332.635c1.554.424 3.108.99 4.522 1.766.706.354 1.413.848 2.12 1.202.706.353 1.483.565 2.33.706-.777-.07-1.624-.283-2.33-.636-.778-.353-1.414-.777-2.12-1.13a20.31 20.31 0 0 0-4.522-1.625c-1.554-.424-3.18-.636-4.592-1.555-.707-.423-1.343-1.06-1.696-1.766-.565-.848-.636-1.695-.424-2.473zM105.553 76.162s.07.07.212.283c.141.14.353.424.706.636.212.14.424.211.778.211.07 0 .212 0 .282-.07.07 0 .07 0 .212-.07.141-.071.212-.071.353-.142.495-.212 1.06-.424 1.696-.636a66.535 66.535 0 0 1 1.978-.636c.707-.212 1.484-.353 2.261-.494a13.213 13.213 0 0 1 2.402-.212 6.88 6.88 0 0 1 2.402.424c.778.282 1.484.706 2.19 1.2.636.495 1.272 1.131 1.767 1.696.494.636.989 1.272 1.342 1.908.353.636.707 1.272.919 1.907.424 1.201.565 2.332.424 3.038-.142.424-.354.848-.566 1.06 0 0 .071-.07.283-.212.141-.141.353-.424.495-.777.282-.777.212-1.978-.142-3.25-.212-.636-.424-1.342-.777-2.049a16.823 16.823 0 0 0-1.272-2.12c-.494-.706-1.13-1.342-1.766-1.978-.706-.565-1.484-1.13-2.402-1.483-.848-.354-1.837-.565-2.755-.707-.919-.07-1.837-.07-2.756.07-1.766.283-3.25.92-4.45 1.555-.637.283-1.131.636-1.626.919-.848.565-2.12-.071-2.19-.071"/>
                    <path fill="#000" d="M106.613 74.254s0 1.979 1.13 2.12c1.13.141 2.967-1.696 2.967-1.696s-2.755.636-4.097-.424z"/>
                    <path fill="#020000" d="M104.917 78.423c.283-.141.636-.212.919-.141.14 0 .353.07.494.14.141.072.283.213.353.354-.353-.07-.565-.141-.847-.141-.283-.07-.566-.07-.919-.212zM104.917 80.119c.283-.283.636-.495.99-.566.352-.07.847 0 1.13.212-.212 0-.354 0-.566.07-.14 0-.353.072-.494.072-.353.07-.707.14-1.06.212zM107.672 80.966c-.353.142-.706.212-.989.283l-.494.141c-.141.07-.353.142-.495.142.212-.354.565-.566.919-.636.212-.071.353-.071.565-.071.141 0 .353 0 .494.141zM108.662 81.885c-.212.212-.354.282-.566.424-.212.07-.353.141-.635.212.07-.283.282-.424.494-.566.212-.07.424-.14.707-.07zM110.216 82.591c-.07.212-.212.283-.353.354-.142.07-.212.14-.424.212 0-.142 0-.212.07-.283l.212-.212c.071-.07.283-.141.495-.07z"/>
                </g>
                <g fill="#331A18">
                    <path d="M138.618 63.869s-.707 3.32-4.593.212c-3.885-3.038-12.929-12.152-28.543-8.337 0 0 12.082-8.478 33.136 8.125zM152.465 67.19s-.847 3.25 4.027 2.33c4.875-.988 17.027-4.945 29.18 5.512 0-.071-6.924-13.142-33.207-7.843z"/>
                </g>
            </g>
            <g>
                <path fill="#513225" d="M202.77 39.07C192.382 6.43 157.198 2.05 157.198 2.05s-34.266-9.255-56.168 17.097c-7.277 8.408-17.097 26.424-20.206 42.25 0 0 5.37-2.19 9.397.494-4.805 37.587 7.489 56.38 7.489 56.38-7.136-20.771-5.935-45.146-3.32-55.532 2.684-1.978 4.591-8.266 10.314-15.048 0 0-3.532 8.407-7.842 13.989 0 0 3.886-1.696 8.054-2.19 3.674-4.381 6.288-8.62 6.288-8.62-.283 3.038-2.331 4.522-4.592 8.407a97.036 97.036 0 0 1 6.712-.212c5.157-5.722 10.527-10.668 10.527-10.668-2.403 4.027-3.604 6.359-6.076 10.74 2.472.07 5.157.211 7.983.423 4.24-8.478 14.272-18.44 14.272-18.44-3.745 6.288-8.125 13.494-10.103 18.864 3.32.353 6.782.848 10.456 1.413 4.592-17.875 12.859-22.255 12.859-22.255-4.875 11.304-7.63 18.157-8.196 23.103.212.07.424.07.636.141 3.038.565 5.935 1.201 8.69 1.908 2.543-13.495 7.277-23.386 7.277-23.386-2.755 9.397-3.603 19.359-3.886 24.304 4.805 1.272 9.114 2.614 12.93 4.027-.566-7.136 1.483-10.88 1.483-10.88-.565 6.994.495 8.054 1.13 11.799 3.674 1.342 6.783 2.755 9.538 4.027-.847-6.218 1.696-9.891 1.696-9.891.919 8.831.99 8.336 2.049 12.01 3.25 1.696 4.946 3.392 4.946 3.392-.424-7.066 1.413-10.527 1.413-10.527-.848 6.146 0 11.445.989 13.565-1.201 5.44-8.55 10.597-13.07 25.575-1.767 5.864-3.321 14.696-1.626 24.092 0 0-1.272-9.679 4.804-23.95 4.38-10.315 12.011-18.511 15.544-25.647 4.168-.636 6.429 3.109 6.429 3.109 2.614-15.967.353-36.315-3.25-46.842z"/>
                <path fill="#422721" d="M147.873 25.788c-6.924 4.239-18.228 13.494-22.608 20.347.918-3.25 2.12-6.429 3.674-9.467-5.37 3.533-10.951 7.348-14.13 12.93a82.934 82.934 0 0 1 6.994-16.039c-6.006 3.25-11.163 7.913-15.049 13.495a98.617 98.617 0 0 1 7.206-16.038c-2.402 1.978-4.521 4.239-6.217 6.853 3.533-5.51 7.207-11.092 12.435-14.978a29.744 29.744 0 0 0-4.734 7.701c5.582-5.44 11.375-11.022 18.652-13.848-2.685 2.332-4.946 5.087-6.853 8.125 5.793-5.793 13.212-9.82 21.195-11.657-5.157 3.038-9.608 7.206-13.14 12.01 4.803-3.956 10.456-6.923 16.46-8.407-10.102 6.994-20.488 15.543-15.966 13.07 1.766-1.13 10.527-4.874 12.081-4.097zM202.77 39.07c-2.827-8.973-7.56-15.826-12.93-20.983-5.087-4.946-10.74-8.408-15.967-10.81-1.06-.494-2.05-.918-3.038-1.342-.495-.212-.99-.354-1.413-.566h-.071c-6.994-2.614-12.152-3.25-12.152-3.25s-3.533-.918-9.043-1.342c4.733 1.413 10.456 3.391 15.826 6.217 3.744 2.473 7.065 5.865 8.548 10.033 1.625 4.451 2.05 9.326 1.837 14.06-.848-3.957-2.967-7.63-6.005-10.386 3.32 7.63 2.755 16.39 1.837 24.728a19.97 19.97 0 0 0-1.696-7.56c1.413 10.033-3.32 20.489-1.554 30.168 1.2.424 2.402.777 3.532 1.201-.565-7.136 1.484-10.88 1.484-10.88-.565 6.994.495 8.054 1.13 11.799 1.343.494 2.544.989 3.745 1.483-1.484-6.429-1.13-13.282 1.06-19.5-.424 7.066.989 14.13 2.543 21.055.777.353 1.484.636 2.19.989-.847-6.218 1.696-9.891 1.696-9.891.919 8.831.99 8.336 2.049 12.01.918.495 1.625.919 2.331 1.343l.636.424c.212.14.354.212.495.353.989.706 1.484 1.272 1.484 1.272-.424-7.066 1.413-10.527 1.413-10.527a38.318 38.318 0 0 0-.283 6.217c.636-5.51 2.331-13.636 6.005-21.69 0 0-3.108 15.26-1.413 20.842 0 0 .919-6.57 1.908-9.75-.283 1.06 1.413 17.592-5.582 25.576-4.31 4.946-6.57 10.598-7.7 14.13 4.45-8.478 10.597-15.472 13.635-21.69 4.169-.636 6.43 3.109 6.43 3.109 2.896-15.967.635-36.315-2.968-46.842zM136.71 60.901c1.13.142 2.261.354 3.391.566 4.593-17.875 12.859-22.256 12.859-22.256s-8.478 1.13-16.25 21.69z"/>
                <path fill="#422721" d="M161.367 40.836s-8.124 9.68-10.95 22.538c1.2.283 2.472.565 3.603.848 2.614-13.494 7.347-23.386 7.347-23.386z"/>
                <path fill="#5E4433" d="M113.537 31.722c-1.555 2.685-2.968 5.511-4.24 8.337-1.271 2.826-2.331 5.723-3.25 8.69l-1.13-.565c2.19-3.25 4.38-6.43 6.924-9.467 2.473-3.038 5.37-5.864 8.69-8.125l4.31-2.897-2.756 4.451c-2.402 3.886-4.521 7.984-6.217 12.223l-2.26-1.201a49.737 49.737 0 0 1 4.238-5.299 62.09 62.09 0 0 1 4.946-4.663l7.065-5.793-5.016 7.63c-1.767 2.614-3.462 5.228-5.016 7.913-1.555 2.685-2.897 5.44-3.886 8.266l-2.402-1.342c3.038-3.674 6.288-7.136 9.89-10.315 3.604-3.18 7.42-6.006 11.376-8.55l4.875-3.108-3.18 4.734c-1.907 2.826-3.815 5.652-5.51 8.62-1.696 2.896-3.11 6.005-4.098 9.184l-1.484-.707c2.543-3.532 5.228-7.065 8.337-10.173 1.554-1.555 3.18-3.038 4.945-4.31 1.767-1.272 3.745-2.402 5.723-3.18v.071l-.706.212.706-.282v.07c-1.978.99-3.744 2.19-5.44 3.604-1.696 1.413-3.18 2.967-4.592 4.592-2.826 3.25-5.229 6.853-7.701 10.456l-2.685 4.027 1.201-4.733c.848-3.392 2.26-6.641 3.886-9.75 1.625-3.109 3.462-6.005 5.299-8.902l1.625 1.695c-3.886 2.544-7.49 5.44-10.951 8.55a91.543 91.543 0 0 0-9.468 10.102l-4.945 6.147 2.543-7.489c1.06-3.109 2.473-6.005 4.098-8.76 1.625-2.756 3.391-5.44 5.158-8.055l1.978 1.837c-1.696 1.342-3.25 2.826-4.734 4.38a46.13 46.13 0 0 0-4.098 4.946l-6.429 8.831 4.24-10.032c1.836-4.38 4.026-8.549 6.711-12.505l1.554 1.554c-3.179 1.978-6.005 4.592-8.548 7.418-2.544 2.826-4.875 5.935-7.207 9.044l-2.685 3.532 1.555-4.098c1.13-2.967 2.402-5.793 3.815-8.619a58.655 58.655 0 0 1 4.946-8.196zM150.84 30.168c-2.19 2.26-3.956 4.804-5.51 7.49a32.524 32.524 0 0 0-2.05 4.168c-.564 1.413-1.06 2.896-1.271 4.38l-1.13-.565c2.826-3.462 5.581-6.924 8.548-10.315 3.038-3.321 6.288-6.5 10.103-9.114l3.11-2.19-1.131 3.744c-.283.918-.565 1.908-.919 2.826a65.142 65.142 0 0 0-.989 2.685 16.738 16.738 0 0 0-.636 2.543 16.534 16.534 0 0 0-.212 2.685l-2.896-1.13c1.13-1.484 2.331-2.827 3.462-4.24 1.13-1.342 2.331-2.755 3.39-4.097l2.968-3.674.353 4.733c.212 2.685.495 5.37.778 8.125.14 1.413.212 2.756.212 4.169v4.168l-3.886-.918a110.203 110.203 0 0 0 3.603-8.55c1.06-2.896 1.837-5.863 2.685-8.901l1.837-6.641 2.19 6.57c.424 1.413.918 2.826 1.272 4.31.353 1.484.635 3.038.777 4.592.282 3.038.141 6.006.07 8.902l-3.744-1.13 1.695-2.756c.566-.918 1.06-1.836 1.413-2.684.778-1.767 1.272-3.957 1.908-6.006l1.837-6.429 1.696 6.43c1.13 4.31 1.413 8.548 1.695 12.717.142 2.12.283 4.168.424 6.217.07 1.06.212 2.049.212 3.18.07 1.059.07 2.19 0 3.25l-2.543-.849c.353-.494.777-1.271 1.06-1.978.353-.706.635-1.484.989-2.26.635-1.555 1.2-3.11 1.625-4.664.494-1.625.847-3.179 1.2-4.875.354-1.625.778-3.32 1.202-4.945l.847-2.968.778 2.897c.353 1.413.706 2.756.989 4.24a44.48 44.48 0 0 1 .424 4.309c0 1.413-.071 2.897-.283 4.31a27.533 27.533 0 0 1-.99 4.168c.566-2.755.637-5.652.354-8.407-.353-2.756-1.13-5.44-2.049-8.055l1.625-.07c-.282 1.625-.565 3.32-.777 5.016-.212 1.696-.565 3.391-.918 5.087a37.674 37.674 0 0 1-1.555 5.016c-.282.848-.636 1.625-.989 2.473-.353.848-.706 1.625-1.342 2.473l-2.402 3.532-.142-4.31c-.07-1.06-.07-2.048-.14-3.038-.072-.989-.213-1.978-.354-3.038-.283-2.12-.424-4.168-.636-6.287-.424-4.098-.918-8.196-1.908-12.011h3.533l-.777 3.18a35.799 35.799 0 0 1-1.06 3.32c-.424 1.13-.99 2.19-1.554 3.179l-1.625 2.897-4.027 7.277.282-8.337c.07-2.826.142-5.652-.141-8.337a25.843 25.843 0 0 0-.707-3.956c-.353-1.272-.777-2.614-1.2-3.957l4.026-.141c-.847 3.038-1.766 6.147-2.896 9.255-1.13 3.038-2.473 6.006-3.815 8.902l-4.098 8.761.212-9.68c.07-2.684.07-5.298-.142-7.983-.14-2.685-.423-5.44-.565-8.125l3.32 1.06c-1.2 1.413-2.401 2.755-3.602 4.098-1.201 1.342-2.473 2.614-3.604 3.956l-3.32 3.745.353-4.875c.07-.99.212-2.049.424-3.038a21.41 21.41 0 0 1 .848-3.038c.777-1.908 1.554-3.533 2.19-5.299l2.049 1.554c-3.674 2.261-6.924 5.158-10.033 8.337-3.108 3.109-6.076 6.43-9.114 9.68l-1.695 1.836.565-2.402c.353-1.625.99-3.108 1.625-4.521.706-1.413 1.484-2.827 2.331-4.098.848-1.343 1.837-2.544 2.826-3.745 1.202-1.695 2.261-2.826 3.462-3.815z"/>
                <path fill="#5E4433" d="M101.031 19.146c-6.994 8.055-16.25 24.94-19.782 40.201v.212c-.141.636-.283 1.201-.424 1.837-.424 1.696-.636 2.402-1.413 4.592 0 0-4.522 15.826-5.37 21.478-2.684 17.946-2.472 33.489 11.517 48.608 0 0-8.62-13.282-9.75-34.407 0 0 5.934 21.337 15.472 32.641 0 0 2.826-3.533 7.207-4.804-7.63-6.783-18.581-28.402-18.581-28.402 1.836 11.304 8.619 22.962 8.619 22.962s-8.69-12.152-10.174-21.62c-1.483-9.467-.706-15.26 2.19-31.934a78.3 78.3 0 0 1 2.473-10.103c.283-.848 4.451-12.294 7.984-18.228 0-.07.07-.07.07-.07-2.614 4.662-4.097 9.89-4.239 15.19 1.908-4.946 3.816-9.963 5.794-14.908-1.908 5.228-3.32 10.597-4.31 16.038 1.978-4.946 4.663-9.609 8.054-13.707a46.226 46.226 0 0 0-3.108 11.092c4.168-7.7 9.114-14.978 14.836-21.619-3.39 3.109-6.429 6.57-9.184 10.245 2.12-7.065 5.793-13.707 10.739-19.218-4.663 2.968-8.761 6.854-11.87 11.446 2.402-5.864 6.57-10.739 10.669-15.543-6.43 4.168-11.8 10.032-15.402 16.815 5.44-13.141 15.119-24.516 27.412-31.652 2.897-1.696 5.935-3.109 9.044-4.31-9.609 2.05-19.995 6.924-28.473 17.168zM191.253 129.998c.212 1.767.141 3.603-.07 5.37a33.506 33.506 0 0 1-1.06 5.299c-.495 1.766-1.13 3.462-1.979 5.087-.777 1.624-1.837 3.108-3.038 4.45.707-1.695 1.413-3.25 2.05-4.945.282-.848.635-1.625.847-2.473l.424-1.272.353-1.271c.99-3.32 1.696-6.783 2.473-10.245zM203.617 124.346c.212 2.402.212 4.804.141 7.277-.07 2.402-.212 4.805-.424 7.207s-.565 4.804-.918 7.206c-.424 2.402-.919 4.734-1.625 7.065.141-2.402.353-4.804.494-7.206.212-2.402.424-4.804.636-7.136.212-2.402.495-4.804.707-7.136.282-2.543.565-4.875.989-7.277zM194.503 84.57l-5.087 8.76c-1.696 2.968-3.18 5.864-4.451 8.973-1.342 3.109-2.473 6.288-3.462 9.467-.99 3.18-1.908 6.43-2.473 9.82 0-3.39.565-6.782 1.413-10.102.424-1.625.919-3.321 1.413-4.946.566-1.625 1.13-3.25 1.837-4.804.707-1.555 1.413-3.109 2.19-4.663.848-1.484 1.696-2.968 2.615-4.38 1.836-2.756 3.815-5.511 6.005-8.125z"/>
            </g>
            <g>
                <path fill="#FFF" d="M104.07 62.668l-8.196 2.12-3.462 11.586s.989 8.549 4.31 12.93c3.32 4.38 11.586 12.928 23.95 9.678 12.364-3.25 16.25-12.081 14.06-19.146-2.19-7.065-18.299-16.32-30.663-17.168zM184.47 78.423l6.783 5.016-1.201 12.081s-4.169 7.56-8.832 10.316c-4.733 2.755-15.613 7.63-25.858-.071-10.244-7.701-10.527-17.38-5.793-23.032 4.733-5.652 23.173-8.196 34.901-4.31z" opacity=".2"/>
                <path fill="#FFF" d="M135.085 84.428l-33.418 7.913s3.815 3.674 6.005 4.098c2.12.424 25.223-5.582 25.223-5.582s2.614-3.815 2.19-6.429zM131.694 93.048l-21.337 4.31s1.413.494 2.332.423c.918 0 17.521-3.462 17.521-3.462l1.484-1.271zM153.666 104.07l36.386-13-2.756 8.124-28.472 8.55zM185.883 101.314c-.494-.07-24.445 7.489-24.445 7.489s1.696.989 2.12.848c.424-.212 20.771-6.641 20.771-6.641l1.554-1.696z" opacity=".2"/>
                <path fill="#020301" d="M199.025 82.874c.282-2.402-2.403-1.484-3.816-1.978 0-.142-.282-2.402-6.5-3.745-6.287-1.413-22.82-5.299-35.396 2.19 0 0-5.581 3.462-11.304 2.332-5.723-1.13-9.538-6.43-9.538-6.43-8.831-11.657-25.646-14.271-32.005-15.33-6.217-1.06-7.348.847-7.418 1.059-1.484-.07-4.24-2.26-4.875.07 1.907.637 2.614 4.098 3.038 4.946-3.32 13.141 3.956 25.93 13.07 31.581 7.913 4.946 19.147 2.403 22.75.354 1.201-.707 3.25-1.908 5.157-3.745l.778-.777c1.342-1.272 4.31-3.603 7.418-3.038 3.109.636 4.946 3.886 5.723 5.581.141.354.282.707.424.99 1.06 2.402 2.472 4.31 3.32 5.44 2.544 3.25 11.94 9.82 21.196 8.266 10.527-1.837 22.113-10.88 24.021-24.304.636-.777 1.978-3.533 3.957-3.462zM129.15 94.39c-3.815 3.674-12.505 4.663-17.38 4.027-4.875-.636-11.587-4.38-15.826-13.282-4.239-8.973 1.908-17.734 1.908-17.734 2.543-2.331 6.57-3.956 16.108-1.13 12.294 3.674 16.533 9.608 19.288 13.777 2.756 4.239-.282 10.598-4.098 14.342zm54.26 7.842c-7.276 6.712-14.907 7.56-19.711 6.359-4.734-1.201-12.505-5.44-14.625-10.315-2.12-4.875-2.543-11.94 1.625-14.837 4.169-2.897 10.315-6.782 23.032-5.51 9.892.988 13 3.956 14.484 7.135.07 0 2.473 10.456-4.804 17.168z"/>
                <path fill="#2F3848" d="M92.836 61.325s-.848 1.837-1.272 3.886c0 0-.636-3.956-2.967-4.239-.566-.07.565-.565 1.413-.495.918.071-.283-.282-.566-.282-.282.07.354.989 3.392 1.13zM195.28 83.015c.07 1.272-.353 3.18-.353 3.18.706-.566 1.907-3.321 3.603-3.321-.07-1.837-3.25.141-3.25.141zM103.575 94.814c-2.826-2.12-5.511-5.299-7.63-9.75-4.24-8.973 1.907-17.733 1.907-17.733 1.201-1.06 2.685-1.979 4.804-2.403-1.413-.282-5.37.071-7.56 3.886.071-.212.071-.424.142-.636 1.907-6.782 8.549-4.945 10.739-4.874 2.19.07 4.733-.354.777-1.06-9.467-1.767-11.799-.848-12.364.565 0 .07-8.62 20.489 9.185 32.005z"/>
                <g fill="#2F3848">
                    <path d="M157.552 106.048c.142.07.283.14.495.211-3.745-1.978-7.49-4.804-8.902-7.983-2.12-4.875-2.544-11.94 1.625-14.837 1.625-1.13 3.462-2.331 5.934-3.391-1.836.565-5.722 1.978-8.69 4.38-4.027 3.25-2.755 4.946-1.625 8.69 1.06 3.816 2.12 8.55 11.163 12.93zM182.35 103.08c10.245-7.348 10.316-15.614 10.457-16.39.07-.778-.424-2.332-.424-.354-.07 1.978-1.413 3.32-1.271 2.685.212-.636.777-5.087-2.05-7.136-2.825-2.05-11.233-3.391-11.233-3.391 6.712 1.342 9.185 3.885 10.457 6.5 0 0 2.331 10.456-4.946 17.168-.283.353-.636.636-.99.918z"/>
                </g>
                <path fill="#C2DBFF" d="M89.515 59.77c.565.284.99.637 1.484.849.494.282.918.494 1.483.777-.635.141-1.271-.07-1.766-.353-.565-.283-.989-.707-1.2-1.272zM94.955 62.102c-.424.636-.565 1.343-.777 1.979a21.574 21.574 0 0 0-.494 2.049c-.142.706-.354 1.342-.495 2.048-.212.707-.353 1.413-.707 2.12-.14-.777-.14-1.484-.14-2.19 0-.707.14-1.484.282-2.19.212-.707.424-1.413.777-2.12.424-.706.848-1.413 1.554-1.696zM96.015 63.445c-.07.424-.141.706-.212.989-.07.283-.212.565-.283.848l-.423.848c-.142.282-.354.565-.566.847-.353-.706-.212-1.483 0-2.12.142-.352.354-.635.566-.918.212-.14.494-.424.918-.494zM96.863 64.928c0 .424-.141.707-.283.99-.141.282-.353.494-.706.777-.212-.424-.07-.777.07-1.13.142-.283.424-.495.919-.637zM135.58 81.037c.706.495 1.271 1.342 1.483 2.26a5.23 5.23 0 0 1 .071 2.756 6.215 6.215 0 0 1-1.201 2.473c-.283.353-.565.707-.918.99l-1.06.847c.212-.424.424-.777.636-1.13l.565-1.13c.353-.778.706-1.485.848-2.262.424-1.554.353-3.25-.424-4.804zM186.66 80.401c1.272 0 2.544.283 3.745.919 1.13.635 2.12 1.695 2.614 3.038.424 1.342.353 2.684.07 3.956a19.59 19.59 0 0 1-.706 1.837c-.282.565-.636 1.13-.989 1.625.142-.636.283-1.201.495-1.837.141-.636.212-1.201.353-1.766.141-1.201.141-2.402-.212-3.462s-1.13-1.978-2.049-2.685a16.114 16.114 0 0 0-3.32-1.625z"/>
            </g>
            <g transform="translate(119.4 108.803)">
                <path fill="#D8886C" d="M27.695 9.467s.99-.424 1.484-.848c.495-.353 1.13-.07 1.06.566-.07.565-1.06.918-2.544.282zM3.32 2.331S1.414 1.484 1.343.918c0-.565-1.625-.565-1.06.283.495.848 3.039 1.13 3.039 1.13z"/>
                <path fill="#BC3C46" d="M26.424 8.549s-.495 2.543-7.56 3.532c-1.837.424-4.31-1.13-5.51-1.342-1.131-.212-3.533 0-5.37-1.413C5.652 7.56 4.31 3.674 3.886 2.402l5.37.848 11.657 2.26 5.51 3.039z"/>
                <path fill="#993139" d="M29.038 9.326s-2.19.918-5.017-1.06c-1.695-1.2-3.673-1.978-5.581-1.483-3.038.07-4.592 1.907-7.277-.707C7.913 2.967 5.935 4.451 1.2 1.554c0 0 2.685.919 6.641.212 3.957-.706 3.745.636 5.3 1.413 2.613 1.272 2.33-.918 7.63 1.272 4.38 1.766 4.31 3.886 8.266 4.875z"/>
                <ellipse cx="17.268" cy="9.306" fill="#EA8692" rx="1" ry="1.625" transform="rotate(-84.244 17.268 9.306)"/>
                <ellipse cx="20.212" cy="9.591" fill="#EA8692" rx="1" ry="1" transform="rotate(-84.244 20.212 9.591)"/>
            </g>
        </g>
        <g fill-rule="nonzero">
            <path fill="#EDAF80" d="M63.869 523.95l-10.315-40.554s-6.076 30.097-9.82 44.157c-2.968 11.021-8.903 43.662-15.12 55.108l-5.37 6.853c-6.005 4.734-3.25 3.886-10.385 6.641 0 0-3.674 10.245 12.575 8.902 5.582-2.473 20.913-7.136 22.538-14.625s3.391-4.804.99-12.152c-.566-6.005 3.744-21.972 14.907-54.33z"/>
            <path fill="#D8886C" d="M45.853 577.645s-.99 5.722-4.451 4.945c0 0 4.592 3.886 4.45-4.945z"/>
            <path fill="#FCFCFC" d="M44.58 575.878s-5.863 5.582-2.684 6.57c3.109.99 2.685-6.57 2.685-6.57z" opacity=".2"/>
            <path fill="#F2C199" d="M12.859 596.155s0 .07-.071.141c-.07.283-.212.848-.283 1.625v.495c2.968 2.12 6.57 4.663 6.57 4.663-3.108-2.332-3.178-5.652-1.977-6.5 1.2-.848 5.581-4.946 7.63-7.56 2.543-3.25 3.109-3.532 5.652-8.266 0 0 3.109-5.51 4.875-11.445 1.201-4.169 5.44-22.326 6.005-30.875-3.25 14.413-6.5 31.44-12.576 41.684l-1.2 1.979c-3.321 4.592-5.44 7.135-8.338 9.961-.211.212-.494.424-.706.636l-.283.283c-.14.141-.353.282-.565.424-.07.07-.212.141-.282.282-.212.212-.495.354-.707.566l-.141.14a6.45 6.45 0 0 1-.919.566.536.536 0 0 1-.282.141c-.283.142-.495.283-.777.424-.142.07-.212.142-.354.142a6.8 6.8 0 0 0-1.271.494c0-.07 0-.07 0 0z"/>
            <path fill="#9E4C28" d="M50.092 583.226v-.212-.141-.212-.07c0-.142 0-.213-.07-.354 0-.07 0-.212-.072-.283-.07-.494-.282-1.13-.494-1.837-.141-.565-.353-1.13-.565-1.837-.495-5.934 3.744-21.901 14.907-54.33l-4.946-1.06-14.412 1.695c-.283 1.06-.495 2.05-.778 2.968-.353 1.272-.706 2.897-1.13 4.733 2.755 1.06 7.277 2.544 11.728 2.473 0 0-.353 12.435-6.57 34.831-1.625 6.359-.424 12.859-2.403 15.685-1.907 2.755-11.728 16.391-26.282 17.804l3.815 2.12h1.201c.424 0 .848-.071 1.343-.071.141-.07.353-.141.565-.212.283-.07.495-.212.777-.353.283-.142.636-.283.99-.354 1.2-.494 2.543-.989 3.956-1.554.353-.141.706-.283 1.13-.424.353-.141.777-.353 1.13-.494.425-.212.848-.354 1.272-.566.495-.212.99-.424 1.484-.706.495-.212.99-.495 1.484-.707.424-.212.777-.424 1.13-.635.07-.071.212-.071.283-.142.353-.212.777-.424 1.13-.636.565-.353 1.06-.706 1.625-.989.353-.212.707-.494.99-.706l.211-.212c.353-.212.636-.495.919-.777.212-.212.424-.354.635-.566.424-.424.778-.777 1.13-1.2.354-.425.637-.848.849-1.272.141-.212.212-.424.353-.636.212-.424.353-.919.424-1.343.07-.282.141-.494.141-.777 0-.07.07-.141.07-.212.071-.141.071-.353.142-.494 0-.071.07-.142.07-.212.071-.142.071-.283.142-.424 0-.07 0-.141.07-.141.071-.212.142-.354.142-.566.07-.141.07-.282.141-.424.071-.212.142-.353.212-.565 0-.07 0-.07.071-.141l.212-.424c0-.07 0-.07.07-.141.071-.142.071-.212.142-.354.07-.14.141-.282.141-.423v-.071c.07-.141.07-.212.141-.353.071-.071.071-.212.071-.283v-.07c0-.071.07-.213.07-.283v-.07c0-.142.071-.213.071-.354v-.283c.142-.282.142-.353.142-.353z" opacity=".2"/>
            <path fill="#18212D" d="M49.244 579.058s-.848 1.2-.707 4.521c.142 3.391-2.12 11.375-15.684 17.31-6.147 2.685-12.223 3.391-15.897-.212-3.674-3.603-4.027-4.169-3.532-4.875 0 0-.848-.848-2.473.212s-7.136 2.826-8.902 3.391c-1.766.565-3.462 6.924.353 11.163 3.815 4.24 12.93 4.804 18.935 2.26 6.005-2.543 3.956-6.005 14.766-10.173 11.87-3.744 18.016-13.918 13.14-23.597z"/>
            <path fill="#D2E9FF" d="M4.31 599.334s-1.13.354-1.696.566c-.565.141-1.484.706-1.554 2.684 0 0 .494-1.271 1.2-1.625.707-.353 1.414-1.413 2.05-1.625zM49.173 581.672c.99 1.271 1.484 2.967 1.343 4.592-.071.848-.212 1.625-.495 2.402-.141.424-.353.707-.494 1.13-.212.354-.424.707-.636.99.282-.777.565-1.484.777-2.261.212-.777.353-1.555.353-2.261.07-.777 0-1.554-.141-2.332-.142-.777-.353-1.554-.707-2.26z"/>
            <path fill="#000102" d="M50.869 584.78c-.424 10.386-9.043 14.766-12.152 15.897-3.32 1.2-9.962 3.32-14.272 8.125-4.31 4.804-10.527 4.239-17.097 3.038-4.522-.848-6.5-5.158-7.207-7.701-.07 2.049.566 4.521 2.332 6.429 3.815 4.24 12.929 4.804 18.934 2.26 6.006-2.613 3.957-6.005 14.766-10.173 9.468-3.038 15.332-10.174 14.696-17.875z"/>
            <path fill="#D2E9FF" d="M8.196 610.497c1.342.212 2.684.354 4.027.354 1.342 0 2.684-.142 4.027-.354 1.342-.282 2.543-.777 3.744-1.271a17.007 17.007 0 0 0 3.392-2.12l.07.07a9.405 9.405 0 0 1-3.108 2.686c-1.272.635-2.615.989-3.957 1.2-1.342.213-2.755.213-4.098.142-1.483-.141-2.826-.283-4.097-.707zM37.798 600.536a97.008 97.008 0 0 1-3.956 1.766c-1.272.636-2.544 1.272-3.815 1.978 1.06-1.06 2.331-1.837 3.603-2.402 1.342-.636 2.685-1.13 4.168-1.342zM20.136 610.568c-.566.636-1.413.918-2.19 1.13-.424.071-.778.142-1.202.142-.424 0-.847 0-1.2-.07.776-.284 1.554-.425 2.33-.637l1.131-.282c.353-.071.777-.142 1.13-.283zM19.5 611.84c-.495.494-1.13.706-1.767.848-.635.14-1.342.07-1.978-.142.636-.141 1.272-.212 1.837-.353.707-.141 1.272-.212 1.908-.353z"/>
            <g>
                <path fill="#EDAF80" d="M146.107 538.221c-.07 9.326-1.696 40.625-1.484 51.152.07 2.967-2.049 6.429.707 15.826 2.755 9.396-2.756 13.353 11.233 13.282 0 0 6.924 1.201 4.734-8.973-2.19-10.174-3.886-12.152-3.32-20.913.564-7.983 8.76-53.553 7.77-54.684"/>
                <path fill="#FCFCFC" d="M145.612 606.258c.07.212.07.354.142.565 0 .071.07.212.07.283 0 .141.07.353.07.495 0 .07 0 .141.071.282 0 .142.071.354.071.495v.212c0 .212.07.424.07.636v.07c.283 2.261.142 4.098.425 5.511.141.636.353 1.13.636 1.625v.07l.211.213.071.07.212.212.07.07c.071.072.142.142.283.213.283.212.636.353 1.06.565h.07c.142.07.283.07.354.141.07 0 .07 0 .141.071.142.07.283.07.424.07.07 0 .142 0 .212.071.141 0 .283.071.424.071h.141c.142 0 .354.07.566.07-1.484-4.662-2.261-10.88-3.038-13.635-1.343-4.592-2.756-14.413-2.473-20.63.141-2.968.565-20.772-.353-29.18-.495 12.577-1.13 27.837-.99 34.55 0 1.342-.353 2.684-.565 4.662-.07.565-.141 1.13-.141 1.837-.07 2.261.212 5.228 1.413 9.397.07.282.141.565.212.777.07 0 .07.07.141.141z" opacity=".2"/>
                <path fill="#9E4C28" d="M164.9 542.53l-1.766-.918-17.169 2.756a109.83 109.83 0 0 0-.14 5.087c2.401.494 8.76 1.554 13.635.282 0 0 .989 2.19-.07 13.353-.213 2.05-3.533 26.353-3.533 32.076 0 2.332 1.13 5.581 2.12 8.973.635 2.12.847 9.255-1.626 14.342h.212s5.37.918 5.158-5.793a24.154 24.154 0 0 0-.354-2.756c0-.141-.07-.282-.07-.424a253.191 253.191 0 0 0-1.978-8.195c-.283-.99-.495-1.908-.707-2.756l-.212-1.06c-.494-2.472-.636-5.016-.424-8.902.353-5.864 4.946-32.216 6.924-46.064z" opacity=".2"/>
                <path fill="#18212D" d="M144.623 589.938s-2.826 4.522-1.342 10.81c0 0 2.684 5.58 2.896 9.396.283 3.745-3.603 10.386 1.343 16.815 2.12 2.755 3.886 3.038 8.902 2.544 5.016-.495 7.7-1.13 8.76-6.36 1.06-5.227-1.624-7.7-2.543-11.091-3.25-7.63-.565-14.908-4.733-18.652 0 0-.919 1.766.282 5.864s5.44 15.967 1.201 16.179c-4.239.212-12.01 1.908-12.222-2.685-.354-12.293-3.18-12.576-2.544-22.82z"/>
                <path fill="#000102" d="M165.253 623.215c.707-3.674-.353-6.006-1.413-8.267 2.12 6.854-1.483 10.74-2.402 11.163-.353.636-9.467 1.696-12.717-.777s-2.756-12.717-2.756-12.717c-.706 3.815-2.402 9.114 1.625 14.342 2.12 2.755 3.886 3.038 8.902 2.544 5.017-.354 7.701-1.06 8.761-6.288z"/>
                <path fill="#D2E9FF" d="M146.743 622.014a6.637 6.637 0 0 0 2.684 3.461c.636.424 1.343.636 2.05.919.353.141.706.212 1.13.282.353.071.777.142 1.13.212-.353.071-.777.071-1.201.071-.424 0-.777 0-1.201-.07a6.768 6.768 0 0 1-2.26-.848c-.707-.424-1.273-1.06-1.697-1.767-.423-.636-.706-1.483-.635-2.26zM159.672 626.676c.918-.211 1.554-.706 2.12-1.271.282-.283.565-.636.847-.919.141-.141.283-.353.424-.494.141-.142.283-.354.424-.495 0 .212-.07.424-.141.707-.071.212-.142.424-.283.636-.212.423-.494.847-.848 1.13-.353.353-.777.636-1.2.777-.354 0-.849.07-1.343-.07zM148.368 626.182c.353.283.777.494 1.2.636.425.141.778.282 1.202.424.424.141.848.212 1.271.282.424.071.919.142 1.343.283-.424.141-.919.283-1.413.283-.495 0-.99 0-1.413-.142a4.686 4.686 0 0 1-1.343-.636c-.282-.282-.635-.706-.847-1.13zM143.705 594.036c-.071.777-.071 1.554-.071 2.26.07.778.141 1.484.212 2.261.141.707.283 1.484.494 2.19.212.707.424 1.484.636 2.19a7.827 7.827 0 0 1-.989-2.048c-.282-.707-.424-1.484-.565-2.261-.283-1.554-.283-3.18.283-4.592z"/>
            </g>
            <path fill="#222D38" d="M144.2 542.743c0-7.207.14-15.049.494-21.973 1.413-49.526 7.771-56.803 5.44-65.493a12.305 12.305 0 0 1-.353-1.555c-.566-4.098 1.2-4.239 0-15.614-1.343-12.222-4.522-78.917 3.179-114.879 0 0-5.087 2.897-11.022.707 0 0-9.679 32.358-35.679 88.102-6.287 12.859-14.13 29.462-16.532 34.76-2.19 4.875-4.592 7.701-8.831 21.902-2.402 7.984-9.892 36.81-16.815 58.5l-22.609-3.674c.707-3.32 1.484-6.5 2.261-9.185 3.038-10.598 12.01-46.63 13.565-54.33 1.554-7.631 1.554-6.571 3.674-17.664 2.049-10.739 5.37-10.88 7.136-20.771s12.788-105.624 37.374-153.878c9.326-28.826 86.054-4.663 86.054-4.663s17.874 32.005 5.016 94.178c-12.859 62.173-18.299 79.553-19.359 87.89-.706 4.521.848 6.782-1.413 12.646-.777 2.05-1.2 5.652-.989 12.011.212 7.207-6.076 46.065-9.68 73.053l-20.912-.07z"/>
            <g fill="#1B252D">
                <path d="M141.938 324.007a88.977 88.977 0 0 0-5.37-3.604c-1.836-1.13-3.602-2.331-5.44-3.39l-5.51-3.392-2.755-1.696-1.343-.848-.706-.423c-.212-.142-.424-.283-.707-.354.565.07 1.06.283 1.554.495.495.212.99.424 1.484.565.99.424 1.978.848 2.967 1.342 1.979.919 3.816 2.05 5.723 3.18a56.135 56.135 0 0 1 5.37 3.744 25.084 25.084 0 0 1 4.733 4.38zM152.041 323.724c1.343-2.049 2.897-3.956 4.593-5.723 1.625-1.766 3.391-3.532 5.299-5.087 1.907-1.554 3.885-3.038 6.005-4.239 2.12-1.2 4.451-2.26 6.853-2.684-2.26.989-4.239 2.26-6.288 3.603l-1.483 1.06-1.413 1.13a79.142 79.142 0 0 0-2.827 2.26 176.092 176.092 0 0 0-5.44 4.805l-5.299 4.875zM148.72 283.311c.707 3.462 1.06 6.924 1.343 10.457.142 1.766.212 3.532.283 5.228 0 1.766.07 3.533 0 5.299-.07 1.766-.141 3.532-.283 5.299-.212 1.766-.353 3.532-.706 5.228-.636 3.462-1.555 6.924-3.18 10.032 1.13-3.32 1.696-6.782 2.12-10.173.424-3.462.636-6.924.706-10.386.142-3.462.071-6.924.071-10.456-.141-3.533-.212-7.066-.353-10.528z"/>
                <path d="M175.074 314.61c-1.908.848-3.886 1.554-5.794 2.26l-5.793 2.12c-1.908.707-3.886 1.413-5.793 2.19-1.908.778-3.816 1.555-5.723 2.473 1.554-1.413 3.391-2.543 5.228-3.462 1.837-.989 3.815-1.766 5.723-2.543 1.978-.707 3.956-1.342 6.005-1.837 2.049-.495 4.098-.918 6.147-1.201z"/>
            </g>
            <path fill="#1B252D" d="M144.2 541.683c11.303 15.543 22.466-42.179 26.07-60.619 1.836-9.538-1.767-11.092-1.767-11.092s-4.733 4.946-8.62 1.554c-7.559-7.418-4.026-18.157-4.026-18.157.847 4.946 5.087 8.62 7.771 8.478 8.125-1.554 9.538-4.945 8.973-7.065-2.614-6.641 0-14.272 2.26-24.587 26.071-109.156 19.5-130.492 17.805-142.715l.353-.777c-2.26-9.609-4.875-8.478-26.989.989-22.113 9.396-40.765 1.484-51.999-7.136-5.935-4.592-8.549-8.266-9.68-10.668l.425-.848c.212-.495.494-.919.706-1.413.142-.495.354-.919.495-1.413l.212-.424c.141-.283.282-.636.424-.919.07-.14.212-.282.282-.494.142-.283.283-.495.495-.777.07-.142.212-.283.282-.424a4.95 4.95 0 0 1 .566-.707c.141-.14.212-.282.353-.424a6.37 6.37 0 0 0 .636-.706l.353-.353c.212-.212.495-.424.777-.707.142-.07.212-.212.353-.282.354-.283.636-.495.99-.778l.14-.14 1.273-.849 62.385.354 1.695.423h.071c6.217 1.484 11.022 2.826 13.141 3.462h.07c.142.071.283.071.425.142h.07c.071 0 .212.07.283.07h.07c.071 0 .071 0 .142.071.07 0 .141.07.141.07s3.957 7.066 6.783 20.913c.282 1.413.565 2.826.847 4.38a146.16 146.16 0 0 1 1.767 15.544c.07 1.272.141 2.614.212 3.956.07 1.343.07 2.756.07 4.098v2.12c0 12.222-1.2 26.565-4.663 43.097v.07c-12.858 62.103-18.157 79.483-19.287 87.89-.707 4.523.847 6.783-1.413 12.647-.354.424-.424.919-.495 1.625-.495 2.19-.636 5.44-.565 10.386.212 7.136-6.006 45.64-9.609 72.63-.141.212-19.146 8.62-21.054-.495z"/>
            <path fill="#1B252D" d="M59.983 525.221c6.57-19.287 17.38-56.874 17.804-62.102.495-6.57-19.217 6.853-16.18-18.51 0 0 5.088 13.494 14.908 1.836 9.75-11.587.566-9.891 16.886-43.592 1.484-2.967 37.374-70.863 48.537-78.917 0 0-2.402 8.054-8.125 23.174-.353.918-.706 1.907-1.13 2.896a6855.169 6855.169 0 0 1-4.451 11.446c-.353.918-.777 1.907-1.13 2.896-.142.424-.354.848-.495 1.272-.424 1.06-.848 2.12-1.342 3.25-.283.636-.566 1.272-.778 1.978a1092.706 1092.706 0 0 1-6.217 14.696c-.494 1.06-.918 2.12-1.413 3.25-1.06 2.331-2.12 4.804-3.25 7.277-.282.636-.565 1.2-.848 1.837-.777 1.766-1.625 3.603-2.472 5.51-.354.778-.707 1.555-1.06 2.261-.99 2.12-1.978 4.31-3.038 6.5-6.288 12.859-14.13 29.462-16.533 34.76-2.19 4.876-4.592 7.702-8.831 21.903-2.331 7.771-9.538 35.537-16.32 57.015l-4.522-.636z"/>
            <path fill="#3B4854" d="M41.543 522.82c.706-3.039 1.413-5.936 2.12-8.408 3.037-10.598 12.01-46.63 13.565-54.331 1.554-7.63 1.554-6.57 3.673-17.663 2.05-10.739 5.37-10.88 7.136-20.771 0-.071 0-.142.07-.283 0-.07 0-.141.071-.283 0-.07 0-.212.071-.282 0-.142 0-.212.07-.353 0-.071 0-.142.071-.212 0-.142.071-.354.071-.495v-.212c2.543-17.098 13.565-104.564 36.527-150.699l6.712.706s-10.669 22.397-18.794 52.212C84.781 351.56 75.81 410.978 73.972 425.32c-1.554 7.49-6.995 7.49-9.114 19.5-2.12 12.01-5.299 2.756-7.56 20.136-1.484 11.375-8.831 39-13.212 57.793l-2.543.07z"/>
            <g>
                <path fill="#303F4C" d="M157.552 537.939s-12.717-4.098-13.565-2.756c-.848 1.343.636 6.076-.777 8.76-1.413 2.756 7.56 3.463 10.386 3.816 8.125.141 12.152.353 12.434-3.674.283-4.027 3.745-8.549-1.766-7.56-5.51 1.06-5.228 1.13-6.712 1.414z"/>
                <path fill="#182533" d="M164.264 536.667c-5.51.989-5.228 1.06-6.712 1.272 0 0-.989-.354-2.473-.778 0 0 5.653 2.05 7.348 2.756 1.696.706 0 3.391-7.348 2.755-7.347-.636 1.837 2.05 3.604 2.19 1.766.142-3.745 2.897-13 1.555 2.543.777 6.288 1.13 7.913 1.342 8.125.141 12.152.353 12.434-3.674.283-3.886 3.745-8.407-1.766-7.418z" opacity=".5"/>
                <path fill="#FFF" d="M152.607 537.232l-3.18-.636c-1.06-.212-2.12-.424-3.108-.565-.495-.07-1.06-.141-1.413 0-.071 0-.142.07-.071.07 0 .071-.07.213-.07.354-.071.212-.071.494-.071.777-.07 1.06.07 2.12-.142 3.25-.07-1.06-.353-2.12-.423-3.25v-.848c0-.141 0-.282.07-.424.07-.282.353-.424.495-.494.636-.212 1.2-.07 1.766-.07 1.06.14 2.12.423 3.18.776.988.212 1.978.636 2.967 1.06z" opacity=".2"/>
            </g>
            <g>
                <path fill="#303F4C" d="M40.483 520.134s.141 4.028-1.272 5.511c-1.413 1.484 3.533 5.087 14.272 6.006 10.668.847 11.163-1.484 12.435-6.147 1.271-4.663 5.864-6.5-6.006-6.217-11.87.282-19.57-7.207-19.429.847z"/>
                <path fill="#182533" d="M59.842 519.287c-3.674.07-6.995-.566-9.75-1.272 0 0 4.31 2.897 8.478 3.25 4.168.353.848 2.331-4.169 2.543-5.016.212-5.298 3.32-1.836 4.451 3.461 1.13-2.827 2.826-10.316.848 2.403 1.13 6.147 2.12 11.163 2.544 10.669.847 11.163-1.484 12.435-6.147 1.272-4.663 5.864-6.57-6.005-6.217z" opacity=".5"/>
                <path fill="#FFF" d="M40.978 520.77a5.555 5.555 0 0 1 .282-2.826c.212-.424.566-.918 1.06-1.13.495-.212 1.13-.141 1.554-.07.919.14 1.837.352 2.756.706.848.282 1.695.636 2.614.847-.919 0-1.908-.14-2.755-.353-.919-.212-1.767-.424-2.685-.494-.495-.071-.848-.142-1.201 0-.354.141-.636.424-.848.777-.424.706-.636 1.625-.777 2.543z" opacity=".2"/>
            </g>
        </g>
        <g fill-rule="nonzero">
            <path fill="#F3F6FA" d="M104.281 244.948s-.282 5.581.495 11.092c.777 5.51-6.288 14.201-1.201 18.157 2.896 2.19 29.956 24.94 59.841 9.044 9.044-4.169 31.016-10.315 26.212-26.212-4.734-15.896-31.157-32.64-31.157-32.64l.989-65.141-6.288-5.44s-9.043 16.532-21.62 14.978c-12.575-1.555-15.401-14.272-15.26-20.842.141-6.57-9.962 23.315-9.962 23.315l-5.793 54.613 3.744 19.076z"/>
            <path fill="#DFE8F2" d="M159.248 174.932l.212-11.94c-1.484-2.896-3.815-6.711-6.359-8.76-.212.353-.636 1.06-1.2 1.978.847 3.886 1.553 10.95-.849 19.57-3.744 13.141-.989 35.68-.989 35.68l9.185-36.528zM158.541 224.176c-.14-2.19-1.907-5.44-7.56-9.89-13-10.245-50.02 8.76-50.02 8.76l-.283 3.25 3.603 18.652s-.282 5.581.495 11.092c.777 5.51-6.288 14.201-1.201 18.157 1.342 1.06 8.125 6.642 17.945 10.598-16.815-11.516-11.163-29.956-11.163-29.956s2.402-8.76 7.701-15.967c9.326-9.114 10.598-8.832 22.326-8.69 11.657.141 15.897-2.05 15.897-2.05s2.26-1.059 2.26-3.744v-.212z" opacity=".5"/>
            <path fill="#DFE8F2" d="M119.047 254.768c17.946 24.516 27.484 16.25 37.657 6.854 10.104-9.397 9.256-24.587-4.521-14.908-13.777 9.68-23.103 10.033-27.342 7.419-2.544-1.555-10.245-5.723-5.794.635z" opacity=".5"/>
        </g>
        <g fill-rule="nonzero">
            <path fill="#6885A2" d="M172.46 194.22c1.2 25.364-5.652 27.413 4.45 35.185 10.669 9.255 18.087 20.771 19.571 32.075 1.06 8.478-7.418 30.31-8.125 26.989-1.978-14.342-15.12-30.168-28.048-46.065-12.93-15.896-14.201-34.407-8.62-56.803 5.582-22.397 1.555-31.157 1.555-31.157s-7.207-.848-9.609-4.31c0 0-2.543-6.924 15.12-1.978 10.95 1.978 13.988 1.413 23.88 11.233 9.325 9.185 9.043 5.935 17.592 13.495 8.548 7.56 18.58 5.298 15.402 15.543-3.18 10.244-8.832 22.962-14.413 16.108-5.582-6.923-7.701 1.837-15.614-6.429-6.359-5.652-8.76-4.098-13.141-3.886"/>
            <path fill="#58758C" d="M161.297 183.623s-6.43 2.12-6.783 2.614c0 0-.494 6.853-.353 8.972 0 0-.283 3.674-1.908 6.783 0 0 2.615 2.967 7.207 3.25 4.592.282 1.695-1.343.636-2.402-1.06-1.06-4.169-8.196-1.06-6.43 3.038 1.837-4.31-10.668 2.26-12.787zM182.845 235.269c5.794 9.679 13.777 25.787-5.086 15.896-20.63-10.81-27.272-31.086-29.18-39.07.636 11.163 4.24 21.195 11.658 30.31 12.93 15.896 26.07 31.722 28.049 46.064.635 3.32 9.184-18.51 8.124-26.989-1.2-9.043-6.217-18.157-13.565-26.211z" opacity=".3"/>
            <path fill="#7797AD" d="M176.84 229.405c-4.027-3.11-5.37-5.229-5.581-8.337-.778 2.402-2.473 4.45-6.076.848-6.147-6.288-5.653 2.826-3.038 5.722 2.543 2.756 23.456 17.734 18.228 5.017-1.13-1.06-2.332-2.19-3.533-3.25zM165.89 182.492s5.369-.848 5.369 1.625 0 4.663-2.544 7.842c-2.543 3.25.07-9.184-2.826-9.467z" opacity=".1"/>
            <g fill="#273F5D">
                <path d="M154.514 186.237c2.544-1.484 5.228-2.614 8.125-3.32 1.413-.354 2.897-.637 4.38-.637 1.484-.07 2.968.142 4.31.777-1.413-.424-2.826-.353-4.239-.282-1.413.141-2.826.424-4.239.777-1.413.353-2.755.777-4.168 1.201-1.413.495-2.826.99-4.169 1.484zM171.259 183.764a73.907 73.907 0 0 1 0 7.913 37.59 37.59 0 0 1-.424 3.956c-.212 1.343-.495 2.614-.919 3.886-.212.636-.494 1.272-.918 1.837a4.049 4.049 0 0 1-.777.777l-.778.565c-1.06.778-2.12 1.555-3.39 2.12-1.273.495-2.615.706-3.957.565a13.79 13.79 0 0 1-3.815-.989c1.271.283 2.543.565 3.885.565 1.272.07 2.544-.212 3.745-.706 1.13-.565 2.19-1.343 3.25-2.12l.777-.565c.283-.212.424-.353.636-.636a6.35 6.35 0 0 0 .848-1.696c.847-2.402 1.13-5.086 1.413-7.63.212-2.614.353-5.228.424-7.842zM154.373 188.427c.141 1.13.212 2.331.212 3.462 0 1.13 0 2.331-.141 3.462-.142 1.13-.354 2.331-.778 3.462-.353 1.13-.918 2.19-1.483 3.179.353-1.13.636-2.19.918-3.32.283-1.131.495-2.19.565-3.321.142-1.13.212-2.261.283-3.392.141-1.2.283-2.402.424-3.532z"/>
                <path d="M155.009 192.525c.494.706 1.06 1.413 1.625 1.978.636.565 1.272 1.13 2.049 1.484.706.353 1.554.635 2.331.635.777 0 1.625-.14 2.402-.494 1.555-.636 2.826-1.766 3.957-3.038.282-.283.565-.636.848-.99.282-.353.565-.635.777-.988.565-.636 1.06-1.413 1.554-2.05-.777 1.555-1.696 3.039-2.826 4.381a15.724 15.724 0 0 1-1.837 1.908c-.706.565-1.413 1.06-2.26 1.413-.849.353-1.767.565-2.685.494-.919-.07-1.837-.353-2.544-.848-1.554-.847-2.685-2.26-3.391-3.885z"/>
            </g>
            <path fill="#273F5D" d="M154.514 178.677a145.25 145.25 0 0 0-1.695 7.984c-.495 2.684-.919 5.37-1.272 8.054-.707 5.44-1.06 10.88-.919 16.32.142 5.44.778 10.88 2.615 16.038.494 1.272.989 2.544 1.625 3.745.635 1.2 1.271 2.402 1.978 3.603a63.133 63.133 0 0 0 4.663 6.712c3.462 4.239 7.418 7.983 11.092 12.081 3.603 4.098 6.853 8.62 9.538 13.353 1.342 2.402 2.614 4.804 3.744 7.277.566 1.272 1.13 2.473 1.696 3.745l.777 1.907.424.919c.07.141.141.353.212.424.07.141.141.212.212.212.07.07.353-.142.565-.424a5.27 5.27 0 0 0 .495-.848c.282-.565.565-1.201.848-1.837a35.687 35.687 0 0 0 1.271-3.886c.354-1.342.636-2.614.919-3.956.212-1.343.424-2.685.212-4.027h.07c.283 1.342.142 2.755-.07 4.097-.212 1.343-.424 2.685-.777 4.027-.354 1.343-.707 2.615-1.201 3.957a11.269 11.269 0 0 1-.848 1.908 6.45 6.45 0 0 1-.566.918c-.14.141-.211.283-.423.424-.142.141-.424.282-.707.212-.283-.07-.424-.283-.494-.495-.071-.212-.142-.353-.212-.494l-.424-.919-.848-1.837a58.762 58.762 0 0 0-1.766-3.674c-1.202-2.472-2.403-4.874-3.745-7.277-2.685-4.733-5.793-9.255-9.397-13.353-3.532-4.168-7.418-7.983-10.81-12.293a57.534 57.534 0 0 1-4.662-6.783c-.707-1.2-1.413-2.331-2.05-3.532-.635-1.201-1.27-2.473-1.765-3.745-1.979-5.157-2.685-10.668-2.897-16.179-.141-5.51.283-10.95 1.06-16.39.848-5.37 1.978-10.74 3.532-15.968zM172.46 193.372c1.06-2.967 2.19-5.934 3.038-8.972.847-3.038 1.554-6.076 1.978-9.185.494-3.109.636-6.217.565-9.397l-.141-2.331c0-.777-.141-1.554-.212-2.332-.07-1.554-.495-3.108-.707-4.663.848 3.038 1.413 6.147 1.625 9.326.142 3.18 0 6.36-.424 9.468-.494 3.108-1.2 6.217-2.19 9.255-.494 1.484-1.06 2.967-1.625 4.451-.636 1.554-1.271 2.967-1.907 4.38z"/>
            <g fill="#273F5D">
                <path d="M153.808 187.155l-.212.99zM153.384 189.204l-.141 1.06h-.071zM153.101 191.324l-.212.989.142-.99zM152.748 193.372l-.141 1.06h-.071l.141-1.06zM152.536 195.492l-.141 1.06h-.07l.07-1.06zM152.324 197.612l-.141 1.06h-.142l.142-1.06zM152.112 199.731l-.07 1.06h-.142l.07-1.06zM151.97 201.85l-.07 1.06-.141-.07.07-1.06zM151.9 203.97l-.07 1.06-.142-.07v-1.06zM151.83 206.09v1.06h-.212v-1.131zM151.83 208.139v1.06l-.212.07v-1.06zM151.9 210.258v1.06l-.212.07v-1.06zM151.97 212.378l.071 1.06-.211.07-.071-1.06zM152.112 214.497l.141 1.06h-.212l-.14-.99zM152.395 216.617l.141 1.06h-.212l-.141-1.06zM152.677 218.736l.212.99-.282.07-.142-1.06zM153.101 220.785l.212 1.06h-.212l-.282-.99zM153.596 222.834l.282 1.06-.282.07-.283-1.06zM154.161 224.883l.353.989-.282.07-.283-.988zM154.868 226.861l.423.99-.282.07-.424-.99zM155.715 228.769c.142.282.283.636.495.918l-.283.141c-.141-.282-.282-.635-.494-.989l.282-.07zM156.634 230.676l.565.919-.283.141-.494-.918zM157.694 232.513l.565.919-.283.141-.494-.918zM158.824 234.35l.565.848-.282.212-.566-.919zM159.954 236.116l.636.848-.282.142-.566-.848zM161.226 237.812l.636.848-.283.212-.635-.848zM162.498 239.508l.636.777-.212.212-.707-.777zM163.84 241.133l.707.777-.283.212-.706-.777zM165.253 242.687l.707.777-.283.283-.706-.848zM166.666 244.241l.707.777-.212.212-.777-.706zM167.87 245.977l.72-.692.735.765-.722.692zM169.377 247.507l.722-.692.733.766-.722.691zM171.047 248.834l.706.777-.212.212-.706-.777zM172.53 250.388l.707.777-.283.212-.706-.777zM173.943 252.013l.636.777-.212.212-.706-.848zM175.286 253.567l.706.848-.282.212-.636-.848zM176.628 255.263l.636.848-.212.141-.636-.848zM177.9 256.959l.636.847-.212.142-.636-.848zM179.1 258.654l.637.919-.212.141-.636-.848zM180.302 260.42l.565.919-.212.141-.565-.918zM181.432 262.257l.566.919-.212.07-.566-.847zM182.492 264.094l.565.919-.212.07-.565-.918zM183.552 265.931l.494.919-.211.141-.495-.99zM184.541 267.768l.495.99-.212.07-.495-.918zM185.53 269.676l.424.989-.212.07-.424-.918zM186.449 271.583l.424.99-.212.07-.424-.989zM187.296 273.49l.424.99-.141.07-.424-.918zM188.144 275.47l.424.988-.141.071-.424-.99zM188.992 277.447l.424.919v.07h-.212l-.353-.918zM189.91 278.437c.212-.283.354-.636.495-.919l.141.07a6.46 6.46 0 0 1-.494.99l-.141-.141zM190.758 276.529l.354-.99h.14l-.282 1.06zM191.465 274.48l.282-.99h.071l-.282 1.06zM191.96 272.431l.282-.989h.07l-.211 1.06zM192.454 270.382l.141-1.06h.07l-.14 1.06zM192.807 268.333l.142-1.06h.07l-.141 1.06zM193.09 266.214l.07-1.06zM193.09 264.094c0-.282-.07-.636-.141-.918.14.282.14.565.14.918z"/>
            </g>
            <g fill="#273F5D">
                <path d="M168.645 199.802c-.071.353-.354.636-.566.848.212-.212.495-.495.566-.848zM167.231 201.427l-.847.565-.071-.07.918-.566zM165.465 202.557l-.918.565-.07-.141.988-.495zM163.628 203.546l-.989.495-.07-.212.989-.424zM161.65 204.394c-.353.07-.706.141-1.06.141v-.212c.354 0 .707 0 .99-.07l.07.141zM159.53 204.465l-1.06-.071v-.283l1.06.142zM157.411 204.182l-1.06-.212.07-.282.99.282zM155.291 203.688l-.989-.424.142-.283.989.424zM153.454 202.486c-.14-.14-.14-.423-.14-.635 0-.212.14-.424.282-.566l.282.212c-.212.283-.282.566-.07.777l-.354.212zM154.02 200.438l.282-.99.354.071-.283 1.06zM154.514 198.389l.142-.99h.353l-.141 1.06zM154.726 196.34l.07-1.06h.354l-.07 1.06zM154.868 194.22v-1.06h.353v1.06zM154.868 192.1v-1.059h.353v1.06zM154.797 190.052c-.141-.353-.212-.707-.283-1.06l.283-.07c.07.353.141.635.282.989l-.282.14zM154.444 187.932c0-.353.14-.777.353-1.06l.282.212c-.211.283-.282.566-.282.919l-.353-.07zM155.786 186.237l.99-.283.07.283-.99.282zM157.835 185.671l.989-.282.07.282-.988.283zM159.813 185.106l1.06-.282.07.282-1.06.283zM161.933 184.612l.989-.283.07.212-1.06.283zM163.982 184.117l1.06-.212v.212l-1.06.212zM166.03 183.764l1.06-.141.07.14-1.059.142zM168.15 183.552l1.13.07-.07.071-1.06-.07zM170.27 183.976c.211.141.353.494.353.777 0-.283-.142-.565-.354-.777z"/>
            </g>
            <g fill="#273F5D">
                <path d="M155.645 192.171l.565.848v.07zM156.916 193.796l.778.778-.142.14-.706-.776zM158.541 195.139l.919.494-.141.283-.919-.565zM160.449 195.916c.353.07.706.07.99.07v.354c-.354 0-.707 0-1.06-.07l.07-.354zM162.427 195.845l.99-.353.14.283-.988.353zM164.335 194.997l.848-.635.212.282-.848.636zM165.96 193.726l.777-.777.212.211-.777.778zM167.443 192.171l.636-.777.212.142-.636.847zM168.715 190.546l.636-.847.141.07-.565.848zM169.987 188.78l.212-.353-.212.424z"/>
            </g>
            <g transform="translate(160.378 191.465)">
                <path fill="#9CAFBC" d="M.707 1.837c-.142.636.07 1.201.494 1.554l.07.07a.54.54 0 0 0 .354.142c.495.212.777.142.777.142v-.071-.07c.495-.213.919-.707 1.06-1.343.141-.636-.141-1.272-.495-1.554V.636c-.07-.07-.353-.141-.494-.141h-.07C1.553.424.847.989.706 1.837z"/>
                <ellipse cx="2.385" cy="2.22" fill="#E5EDF6" rx="1.625" ry="1.413" transform="rotate(-78.195 2.385 2.22)"/>
                <circle cx="2.329" cy="1.597" r="1" fill="#9CAFBC" transform="rotate(-71.965 2.33 1.597)"/>
                <circle cx="1.861" cy="2.336" r="1" fill="#9CAFBC" transform="rotate(-71.965 1.86 2.336)"/>
                <circle cx="2.494" cy="2.787" r="1" fill="#9CAFBC" transform="rotate(-71.965 2.494 2.787)"/>
                <circle cx="2.97" cy="2.052" r="1" fill="#9CAFBC" transform="rotate(-71.965 2.97 2.052)"/>
                <path fill="#273F5D" d="M2.12 2.543a.857.857 0 0 1-.354-.07c-.07 0-.141-.142-.141-.212s.141-.141.212-.141c0 0 .494.14.918-.212.071-.071.212-.071.283 0 .07.07.07.212 0 .282-.283.283-.636.353-.918.353z"/>
                <path fill="#273F5D" d="M2.473 2.967c-.142 0-.212-.07-.142-.212 0 0 .071-.565-.14-1.06-.071-.07 0-.211.07-.211.07-.071.212 0 .212.07.282.566.212 1.201.212 1.272 0 .07-.07.141-.212.141z"/>
            </g>
            <g>
                <path fill="#7797AD" d="M182.563 159.39c-9.962-9.75-12.93-9.185-23.88-11.234-5.44-1.484-8.902-1.908-11.163-1.767l6.924 4.805s22.961.565 23.88 13.494c0 0 3.038-4.946 6.5.848 3.532 5.793 9.184 12.01 7.135 18.793-1.978 6.783 4.875-1.696 1.625-10.668-3.25-8.973 5.017-1.978 7.56 5.652 2.12 6.217 4.663 1.766 2.12-4.098a31.311 31.311 0 0 1-3.18-2.402c-8.478-7.56-8.266-4.31-17.521-13.424z" opacity=".1"/>
                <path fill="#58758C" d="M215.486 188.427c1.343-4.38.283-6.5-2.049-8.054 2.332 5.298-2.048 14.412-3.462 8.336-1.624-6.994-4.027-3.956-3.532 3.533.494 7.49-7.772 6.5-5.158-1.413s-7.7-25.152-4.592-11.022c3.109 14.13-8.266 17.027-7.913 10.245.353-7.348-10.032-.353-14.271 1.413-2.261.918-2.403 2.473-2.05 3.674v-.919c4.452-.212 6.783-1.766 13.071 3.886 7.913 8.266 10.033-.494 15.614 6.43 5.51 6.853 11.163-5.865 14.342-16.11z" opacity=".3"/>
            </g>
            <path fill="#273F5D" d="M140.667 140.101s-2.614 9.256 9.326 15.544c6.5 3.956 3.673 19.782 3.39 21.548 0 0 4.381-15.826 11.022-14.13 6.642 1.696-7.771-15.967-23.738-22.962z"/>
        </g>
        <path fill="#6885A2" fill-rule="nonzero" d="M96.368 202.486s-.565 6.288 1.837 12.011c5.37 12.505-.212 26.494-2.19 29.391-1.413 2.049-7.63 5.935-6.076 17.027 1.554 11.092 3.603 16.744 7.418 21.195.707.99.424-10.103 3.18-16.603 4.945-11.516 11.304-14.06 13.494-25.151 2.26-11.446 3.603-15.826.636-32.288-1.484-9.891 5.016-26.989 2.826-36.81-2.12-9.82 3.109-15.967 3.533-24.02 0 0-1.979-2.968-19.359 2.967C84.287 156.139 69.45 168.29 65 167.797c-4.45-.495-12.717 7.913-11.516 17.38 1.201 9.467 11.304 15.755 19.288 10.103 7.983-5.652 3.744 2.755 14.06-2.12 5.298-2.472 10.103-4.097 9.82-.565-.283 3.533-.283 7.277-.283 9.891z"/>
        <g fill-rule="nonzero">
            <path fill="#58758C" d="M86.83 193.09c5.3-2.473 10.104-4.098 9.892-.565-.071 1.413-.142 2.896-.212 4.31 5.934-20.56-1.201-29.18-1.201-29.18-8.903 3.533-8.973 17.875-15.756 14.484-6.782-3.391-8.76 9.608-17.592 9.043-6.641-.424-7.065-10.244-6.924-15.12-1.271 2.686-1.978 5.794-1.554 9.044 1.201 9.468 11.304 15.755 19.288 10.103 7.983-5.652 3.744 2.756 14.06-2.12z" opacity=".3"/>
            <path fill="#7797AD" d="M117.07 146.46c-2.827.141-7.49.99-15.403 3.674C84.287 156.069 69.45 168.22 65 167.726c-2.755-.283-6.853 2.755-9.396 7.277-1.06 9.185 5.722 15.543 3.744 10.88-2.19-5.086 2.543-12.858 2.543-12.858s27.343-4.734 31.299-11.234c3.886-6.5 15.755-1.695 15.755-1.695l8.125-12.011v-1.625z" opacity=".1"/>
            <path fill="#58758C" d="M104.846 183.199s1.908 17.097-3.461 13.847c0 0 1.766 4.593 5.369-.494 0 0-.495 13.07-5.158 7.913 0 0 4.734 6.217 6.36.636 1.695-5.653 2.33-21.196-3.11-21.902zM103.15 247.915c-9.325 6.641-12.293 1.13-12.646 16.815 1.484 8.62 3.533 13.495 6.783 17.38.706.99.424-10.103 3.18-16.603 4.945-11.516 11.303-14.06 13.493-25.151 2.05-10.386 3.321-14.979 1.343-28.12-.495 6.712-2.968 29.18-12.152 35.68z" opacity=".3"/>
            <path fill="#7797AD" d="M101.385 218.878c-1.343-1.202-2.332-2.685-3.11-4.24 5.23 12.435-.282 26.283-2.26 29.18-.212.353-.565.706-.99 1.13.072-.07.142-.07.213-.141 14.625-7.63 11.728-20.701 6.147-25.93z" opacity=".1"/>
        </g>
        <path d="M99.83 181.432s-2.614 19.783 3.25 24.87c1.13.706-3.815-7.49-1.13-8.196.07 0-3.18-2.826-2.12-16.674zM116.292 216.405s-.424 19.429-7.277 27.342-17.804 18.51-11.728 39.211c.989 3.109 4.098-4.521 4.098-4.521s17.097-29.957 17.168-30.169c.07-.282.353-29.673.353-29.673l-2.614-2.19zM104.846 183.199s1.767 2.331 1.555 7.7c-.283 5.37-1.13 6.924-2.544 7.843 0 0 5.37-1.342 4.098 6.359-1.201 7.7 2.473-13.636-1.201-20.49l-1.908-1.412z"/>
        <path fill="#273F5D" fill-rule="nonzero" d="M116.08 181.432c-.848 4.098-1.484 8.196-2.12 12.364-.282 2.05-.565 4.098-.777 6.218-.212 2.049-.353 4.168-.353 6.217 0 1.06.07 2.049.283 3.038.07.212.14.495.212.706.07.212.212.495.282.707.212.495.353.99.424 1.554.212 1.06.424 2.05.495 3.109.141 1.06.212 2.12.282 3.109.212 4.168 0 8.407-.494 12.505-.283 2.049-.566 4.168-.99 6.217a45.606 45.606 0 0 1-1.695 6.076c-.707 1.978-1.625 3.886-2.826 5.652-1.201 1.767-2.544 3.32-3.674 5.017-.636.847-1.13 1.766-1.696 2.614l-.777 1.342c-.282.424-.494.918-.777 1.342-.989 1.837-1.766 3.745-2.402 5.723a43.842 43.842 0 0 0-1.484 6.006c-.353 2.048-.565 4.097-.918 6.217l-.07.565-.283-.495c-.778-1.271-1.413-2.543-2.05-3.885a31.288 31.288 0 0 1-1.412-4.098c-.424-1.413-.636-2.826-.848-4.31-.212-1.413-.212-2.897-.141-4.38h.07c0 1.483 0 2.896.283 4.31.212 1.413.494 2.826.918 4.239a40.376 40.376 0 0 0 1.484 4.097c.565 1.343 1.272 2.614 2.049 3.816l-.424.07c.283-2.049.494-4.168.777-6.217.283-2.049.707-4.169 1.342-6.147a34.843 34.843 0 0 1 2.473-5.793c.424-.919 1.06-1.837 1.555-2.756.565-.847 1.13-1.766 1.766-2.614 1.2-1.695 2.543-3.391 3.744-5.016 1.201-1.696 2.12-3.533 2.897-5.44 1.554-3.886 2.402-7.984 2.897-12.081.494-4.169.494-8.337.141-12.435-.141-2.049-.353-4.168-.848-6.147-.141-.494-.212-.989-.424-1.483-.07-.212-.141-.424-.282-.707a3.444 3.444 0 0 1-.283-.777c-.212-1.06-.282-2.12-.282-3.18 0-4.238.635-8.336 1.271-12.505.848-4.239 1.696-8.266 2.685-12.364zM99.053 181.291c.848-.07 1.766.07 2.614.212.848.212 1.696.495 2.473.848.777.353 1.554.848 2.19 1.484.707.565 1.272 1.271 1.696 1.978-.707-.565-1.343-1.13-2.05-1.555a13.59 13.59 0 0 0-2.19-1.271c-1.412-.636-3.037-1.201-4.733-1.696zM99.548 191.747c.353 1.202.706 2.403 1.2 3.533.283.565.495 1.13.848 1.625.354.495.707.99 1.13 1.201.425.283.99.283 1.485.141.494-.212.989-.565 1.483-.918.919-.848 1.696-1.766 2.473-2.755-.565 1.13-1.201 2.26-2.049 3.179-.424.494-.989.918-1.625 1.13-.636.283-1.483.212-2.12-.141-.635-.353-1.06-.919-1.342-1.484-.353-.565-.565-1.13-.777-1.766-.424-1.201-.636-2.473-.706-3.745z"/>
        <g fill="#273F5D" fill-rule="nonzero">
            <path d="M108.308 191.606c.424 2.826.566 5.652.495 8.478a43.054 43.054 0 0 1-.424 4.24c-.141.706-.283 1.412-.565 2.048-.283.636-.565 1.343-1.06 1.837a6.627 6.627 0 0 0 .707-1.978c.14-.707.211-1.342.353-2.049.141-1.413.212-2.755.282-4.168.142-2.756.142-5.582.212-8.408zM99.406 187.296v2.756c0 .918 0 1.837.07 2.755.072 1.837.213 3.674.496 5.44.282 1.837.706 3.604 1.413 5.229.706 1.625 1.907 3.179 3.673 3.744-.918-.141-1.766-.636-2.472-1.201a7.602 7.602 0 0 1-1.696-2.26c-.918-1.696-1.342-3.533-1.625-5.37-.283-1.837-.424-3.745-.353-5.582.07-1.766.141-3.674.494-5.51z"/>
        </g>
        <path fill="#273F5D" fill-rule="nonzero" d="M100.607 150.911c-1.554 3.038-2.684 6.217-3.532 9.467-.848 3.25-1.484 6.642-1.696 9.962-.07.848-.07 1.696-.141 2.544l-.07 1.271v1.272l.07 2.543.212 2.544c.07 1.696.424 3.391.636 5.016.212 1.696.636 3.32.918 5.016l-.636-2.472-.353-1.201c-.141-.424-.212-.848-.283-1.272-.282-1.696-.706-3.32-.777-5.016-.07-.848-.212-1.696-.282-2.544l-.071-2.543c0-.424-.07-.848 0-1.272l.07-1.272c.071-.848 0-1.695.142-2.543l.283-2.544.423-2.543c.142-.848.354-1.696.495-2.544.141-.847.424-1.625.636-2.472a55.222 55.222 0 0 1 1.696-4.805c.565-1.625 1.271-3.179 2.26-4.592z"/>
        <g fill="#273F5D" fill-rule="nonzero">
            <path d="M113.325 186.237l-.212 1.06zM112.971 188.356l-.212 1.06.142-1.06zM112.618 190.405l-.212 1.06h-.07l.211-1.06zM112.265 192.525l-.212 1.06h-.07l.211-1.06zM111.912 194.644l-.142 1.06-.07-.07.14-.99zM111.629 196.764l-.07.989h-.142l.141-1.06zM111.417 198.813l-.07 1.06h-.142l.07-1.06zM111.205 200.932l-.07 1.06h-.142l.07-1.06zM111.134 203.052l-.07 1.06h-.142v-1.06zM111.064 205.171l.07 1.06h-.212v-1.06zM111.205 207.29l.07 1.06h-.14l-.142-1.06zM111.558 209.34c.071.353.212.635.354.989l-.212.07a4.085 4.085 0 0 1-.354-.989l.212-.07zM112.265 211.318l.282 1.06h-.212l-.282-.99zM112.76 213.437l.14.99-.211.07-.142-1.06zM113.042 215.486l.141 1.06-.212.07-.141-1.06zM113.254 217.606l.07 1.06h-.211l-.071-.99zM113.395 219.725l.07 1.06h-.282v-1.06zM113.466 221.845v1.06h-.212l-.07-1.06zM113.466 223.964v1.06h-.283v-1.06zM113.395 226.084l-.07 1.06h-.283l.07-1.06zM113.254 228.204l-.07 1.06h-.283l.07-1.06zM113.113 230.323l-.142 1.06h-.282l.141-1.06zM112.83 232.443l-.141 1.06-.283-.071.141-.99zM112.547 234.562l-.212 1.06-.282-.07.141-1.06zM112.124 236.611l-.212 1.06-.354-.07.283-1.06zM111.629 238.73l-.283.99-.282-.071.282-.99zM111.064 240.78l-.283.989-.353-.071.353-1.06zM110.428 242.758l-.424.989-.283-.07.354-.99zM109.58 244.736l-.424.989-.282-.141.423-.99zM108.662 246.643l-.566.919-.282-.141.565-.919zM107.531 248.48l-.636.848-.212-.141.566-.848zM106.26 250.176l-.636.848-.283-.212.707-.777zM104.988 251.872l-.636.847-.283-.211.636-.848zM103.716 253.567l-.636.848-.212-.141.565-.848zM102.444 255.263l-.565.918-.212-.14.565-.92zM101.314 257.03l-.565.918-.212-.142.565-.918zM100.254 258.866l-.565.919-.212-.071.565-.99zM99.265 260.774l-.495.918-.14-.07.423-.99zM98.417 262.681l-.353.99-.212-.071.353-.99zM97.71 264.66l-.282 1.06-.212-.071.283-1.06zM97.216 266.708l-.212 1.06-.212-.07.212-.99zM96.863 268.828l-.141 1.06-.212-.07.14-1.06zM96.58 270.877l-.141 1.06h-.141l.14-1.06zM96.298 272.996l-.142.919v.212l-.141-.212-.07-.141.14-.071.071.141h-.141l.141-.848zM95.591 272.784l-.353-.989.141-.07.353.989zM94.955 270.736l-.282-.99.07-.07.283 1.06zM94.39 268.687l-.212-.99.07-.07.213 1.06zM93.966 266.638l-.212-1.06h.07l.213 1.06zM93.542 264.518l-.141-.989.07-.07.142 1.06zM93.33 262.47l-.141-1.06h.07zM93.189 260.35l-.07-1.06zM93.118 258.23v-1.06z"/>
        </g>
        <g fill="#273F5D" fill-rule="nonzero">
            <path d="M99.548 184.258a5.204 5.204 0 0 1-.283-.989h.07c0 .354.071.707.213.99zM99.548 182.21c.353-.212.706-.142 1.06-.071v.141c-.354-.07-.707-.141-1.06-.07zM101.596 182.492l.99.424-.071.212-.99-.495zM103.504 183.41l.919.566-.142.212-.848-.565zM105.341 184.612l.777.706-.212.212-.777-.706zM106.825 186.166l.565.918-.283.142-.565-.919zM107.743 188.144c.07.354.07.707.07 1.06h-.352c0-.353 0-.706-.071-.99l.353-.07zM107.814 190.264v1.06h-.353v-1.06zM107.884 192.383v1.06h-.353v-1.06zM107.884 194.503v1.06h-.282l-.07-1.06zM107.884 196.622v1.06h-.282v-1.06zM107.884 198.742l-.07 1.06h-.283l.07-1.06zM107.814 200.861l-.142 1.06h-.211l.07-1.06zM107.602 202.981l-.212 1.06h-.141l.07-1.06zM107.178 205.1l-.353.99-.142-.071.354-.99zM106.189 206.937c-.283.212-.707.212-1.06.071v-.07c.283.14.707.14.99-.071l.07.07zM104.281 206.372l-.07-.141.14.141z"/>
        </g>
        <g fill="#273F5D" fill-rule="nonzero">
            <path d="M99.548 190.122l.282.99-.07.07zM100.183 192.171l.354.99-.212.07-.283-1.06zM100.96 194.079l.495.918-.282.212-.495-.989zM102.02 195.916c.212.282.424.565.636.777l-.212.283c-.282-.283-.494-.566-.706-.848l.282-.212zM103.504 197.258c.283.142.636.142.919.07l.07.284c-.353.07-.777.07-1.13-.071l.141-.283zM105.341 196.905c.283-.212.565-.424.777-.707l.141.142a4.049 4.049 0 0 1-.777.777l-.141-.212zM106.754 195.421l.565-.777-.494.848z"/>
        </g>
        <g fill-rule="nonzero">
            <g transform="translate(100.325 188.639)">
                <path fill="#9CAFBC" d="M3.815 2.473c-.07.636-.494 1.06-.918 1.272-.071 0-.071.07-.142.07-.14 0-.282.07-.353.07-.565 0-.777-.14-.777-.14v-.071-.07c-.424-.354-.636-.92-.565-1.555.141-.636.494-1.13 1.06-1.342 0-.071 0-.071.07-.071h.565c.778.212 1.272.989 1.06 1.837z"/>
                <ellipse cx="2.197" cy="2.251" fill="#E5EDF6" rx="1.625" ry="1.413" transform="rotate(-82.143 2.197 2.251)"/>
                <circle cx="2.463" cy="1.768" r="1" fill="#9CAFBC" transform="rotate(-88.374 2.463 1.768)"/>
                <circle cx="2.618" cy="2.568" r="1" fill="#9CAFBC" transform="rotate(-88.374 2.618 2.568)"/>
                <circle cx="1.873" cy="2.777" r="1" fill="#9CAFBC" transform="rotate(-88.374 1.873 2.777)"/>
                <circle cx="1.65" cy="1.894" r="1" fill="#9CAFBC" transform="rotate(-88.374 1.65 1.894)"/>
                <path fill="#273F5D" d="M2.614 2.755s-.706 0-1.13-.706c-.071-.07 0-.212.07-.212.071-.07.212 0 .212.07.283.495.777.566.848.566.07 0 .141.07.141.212.071 0 0 .07-.14.07z"/>
                <path fill="#273F5D" d="M1.837 2.897c-.141 0-.212-.142-.141-.212 0 0 .14-.636.635-1.13.071-.071.212-.071.283 0 .07.07.07.211 0 .282-.424.353-.494.918-.494.918-.071.142-.142.142-.283.142z"/>
            </g>
            <g transform="translate(106.683 204.889)">
                <path fill="#9CAFBC" d="M3.674 2.12c.141.635-.07 1.2-.424 1.554l-.07.07a.54.54 0 0 1-.354.142c-.495.212-.777.141-.777.141v-.07-.071c-.495-.141-.919-.636-1.06-1.272-.141-.636.07-1.272.495-1.625V.92c.07-.071.353-.142.494-.142h.07c.707-.07 1.485.495 1.626 1.343z"/>
                <ellipse cx="2.058" cy="2.463" fill="#E5EDF6" rx="1.413" ry="1.625" transform="rotate(-13.668 2.058 2.463)"/>
                <circle cx="2.107" cy="1.892" r="1" fill="#9CAFBC" transform="rotate(-19.895 2.107 1.892)"/>
                <circle cx="2.54" cy="2.618" r="1" fill="#9CAFBC" transform="rotate(-19.895 2.54 2.618)"/>
                <circle cx="1.915" cy="3.109" r="1" fill="#9CAFBC" transform="rotate(-19.895 1.915 3.11)"/>
                <circle cx="1.417" cy="2.406" r="1" fill="#9CAFBC" transform="rotate(-19.895 1.417 2.406)"/>
                <path fill="#273F5D" d="M2.26 2.826c-.211 0-.564-.07-.918-.353-.07-.07-.07-.142 0-.283.071-.07.142-.07.283 0 .495.353.918.212.99.212.07-.07.211 0 .211.07 0 .071 0 .213-.07.213-.142.07-.283.141-.495.141z"/>
                <path fill="#273F5D" d="M1.908 3.25a.152.152 0 0 1-.142-.141s-.141-.636.142-1.272c.07-.07.14-.141.212-.07.07.07.14.14.07.211-.212.495-.141 1.06-.141 1.06.07.141 0 .212-.141.212.07 0 0 0 0 0z"/>
            </g>
            <g transform="translate(106.683 237.388)">
                <path fill="#9CAFBC" d="M3.956 2.614c-.211.565-.635.99-1.13 1.13h-.495c-.565-.07-.706-.211-.706-.211v-.071-.07a1.669 1.669 0 0 1-.283-1.626c.212-.636.707-1.06 1.201-1.13 0-.07.071-.07.071-.07.07 0 .353.07.495.07h.07c.707.282 1.06 1.13.777 1.978z"/>
                <ellipse cx="2.322" cy="2.079" fill="#E5EDF6" rx="1.625" ry="1.413" transform="rotate(-73.154 2.322 2.08)"/>
                <circle cx="2.713" cy="1.619" r="1" fill="#9CAFBC" transform="rotate(-79.38 2.713 1.62)"/>
                <circle cx="2.788" cy="2.454" r="1" fill="#9CAFBC" transform="rotate(-79.38 2.788 2.454)"/>
                <circle cx="2.004" cy="2.52" r="1" fill="#9CAFBC" transform="rotate(-79.38 2.004 2.52)"/>
                <circle cx="1.931" cy="1.676" r="1" fill="#9CAFBC" transform="rotate(-79.38 1.931 1.676)"/>
                <path fill="#273F5D" d="M2.755 2.614c-.07 0-.706-.141-.989-.848-.07-.07 0-.212.07-.212.072-.07.213 0 .213.071.212.565.706.636.706.636.071 0 .142.141.142.212 0 .07-.071.141-.142.141z"/>
                <path fill="#273F5D" d="M1.978 2.685s-.07 0 0 0c-.141-.07-.212-.142-.141-.212 0 0 .212-.636.777-.99.07-.07.212 0 .212.071s0 .212-.07.212c-.425.283-.636.848-.636.848 0 .07-.071.07-.142.07z"/>
            </g>
            <g transform="translate(98.912 250.105)">
                <path fill="#9CAFBC" d="M4.098 3.674c-.353.494-.919.706-1.413.706h-.142c-.14 0-.212-.07-.353-.14-.494-.213-.636-.425-.636-.425v-.07l.071-.071c-.212-.495-.141-1.13.212-1.625.353-.495.989-.777 1.484-.707l.07-.07c.07 0 .283.141.424.282 0 0 .07 0 .07.071.707.353.778 1.342.213 2.049z"/>
                <ellipse cx="2.784" cy="2.68" fill="#E5EDF6" rx="1.625" ry="1.413" transform="rotate(-54.943 2.784 2.68)"/>
                <circle cx="3.255" cy="2.303" r="1" fill="#9CAFBC" transform="rotate(-61.172 3.255 2.303)"/>
                <circle cx="3.014" cy="3.111" r="1" fill="#9CAFBC" transform="rotate(-61.172 3.014 3.111)"/>
                <circle cx="2.273" cy="2.961" r="1" fill="#9CAFBC" transform="rotate(-61.172 2.273 2.96)"/>
                <circle cx="2.457" cy="2.113" r="1" fill="#9CAFBC" transform="rotate(-61.172 2.457 2.113)"/>
                <path fill="#273F5D" d="M3.038 3.32h-.07s-.637-.353-.637-1.13c0-.07.071-.212.142-.212.141 0 .212.07.212.142.07.635.494.847.494.847.071.071.142.142.071.212-.07.071-.141.142-.212.142z"/>
                <path fill="#273F5D" d="M2.26 3.109c-.07 0-.07 0-.14-.071-.071-.07-.071-.141 0-.283 0 0 .423-.494 1.06-.706.07 0 .211 0 .211.141 0 .07 0 .212-.141.212-.495.141-.848.565-.848.565-.07.142-.07.142-.141.142z"/>
            </g>
            <g transform="translate(93.966 264.942)">
                <path fill="#9CAFBC" d="M3.32 2.26c-.14.637-.494 1.06-.989 1.273-.07 0-.07.07-.14.07-.142 0-.283.07-.354.07-.565 0-.777-.14-.777-.14v-.071-.07c-.424-.354-.636-.92-.495-1.555C.707 1.2 1.13.707 1.625.565c0-.07 0-.07.07-.07h.565c.707.14 1.202.918 1.06 1.766z"/>
                <ellipse cx="1.654" cy="2.024" fill="#E5EDF6" rx="1.625" ry="1.413" transform="rotate(-81.651 1.654 2.024)"/>
                <circle cx="1.858" cy="1.498" r="1" fill="#9CAFBC" transform="rotate(-87.879 1.858 1.498)"/>
                <circle cx="2.073" cy="2.366" r="1" fill="#9CAFBC" transform="rotate(-87.879 2.073 2.366)"/>
                <circle cx="1.335" cy="2.496" r="1" fill="#9CAFBC" transform="rotate(-87.879 1.335 2.496)"/>
                <circle cx="1.119" cy="1.689" r="1" fill="#9CAFBC" transform="rotate(-87.879 1.119 1.69)"/>
                <path fill="#273F5D" d="M2.049 2.543s-.707 0-1.13-.706c-.071-.07 0-.212.07-.212.07-.07.212 0 .212.07.283.495.777.566.777.566.07 0 .142.07.142.212.14-.07.07.07-.071.07z"/>
                <path fill="#273F5D" d="M1.342 2.685c-.07 0-.07 0 0 0-.14 0-.212-.142-.14-.212 0 0 .14-.636.635-1.13.07-.071.212-.071.283 0 .07.07.07.211 0 .282-.424.353-.495.918-.495.918-.141.071-.212.142-.283.142z"/>
            </g>
            <g transform="translate(109.51 221.845)">
                <path fill="#9CAFBC" d="M3.745 1.978c0 .636-.354 1.13-.778 1.413-.07 0-.07.07-.141.07-.141.072-.212.072-.353.072-.565.14-.777 0-.777 0v-.071-.07a1.83 1.83 0 0 1-.778-1.484c0-.636.354-1.201.848-1.413V.424c.07 0 .354-.07.495-.07h.07c.848 0 1.414.706 1.414 1.624z"/>
                <ellipse cx="2.019" cy="1.897" fill="#E5EDF6" rx="1.625" ry="1.413" transform="rotate(-89.77 2.019 1.897)"/>
                <circle cx="2.181" cy="1.415" r="1" fill="#9CAFBC" transform="rotate(-5.999 2.18 1.415)"/>
                <circle cx="2.533" cy="2.187" r="1" fill="#9CAFBC" transform="rotate(-5.999 2.533 2.187)"/>
                <circle cx="1.755" cy="2.474" r="1" fill="#9CAFBC" transform="rotate(-5.999 1.755 2.474)"/>
                <circle cx="1.473" cy="1.694" r="1" fill="#9CAFBC" transform="rotate(-5.999 1.473 1.694)"/>
                <path fill="#273F5D" d="M2.473 2.331c-.212 0-.707-.07-1.13-.565a.215.215 0 0 1 0-.282c.07-.071.211-.071.282 0 .353.494.848.424.848.424.07 0 .212.07.212.14 0 .072-.07.213-.142.213 0 .07-.07.07-.07.07z"/>
                <path fill="#273F5D" d="M1.766 2.614c-.141 0-.212-.07-.141-.212 0 0 .07-.706.495-1.2.07-.072.14-.072.282 0 .07.07.07.14 0 .282-.353.424-.353.989-.353.989a.536.536 0 0 1-.283.141z"/>
            </g>
        </g>
        <path fill="#273F5D" fill-rule="nonzero" d="M121.59 141.02s1.414 5.016-1.483 14.837c-1.201 5.44-2.12 4.45-2.19 11.657.141 2.26.424 7.984-.212 11.799 0 0-7.348-19.712-10.668-14.978-3.321 4.804-3.674-4.027 4.168-13.424 6.288-6.994 9.255-9.75 10.386-9.891z"/>
        <g fill-rule="nonzero">
            <path fill="#EDAF80" d="M189.345 261.904s.283 3.25 1.484 5.51c1.201 2.262 6.288 6.783 9.043-.07 2.756-6.853-6.853-21.407-6.853-21.407s-4.027-5.158-4.945-7.842c-.283-.99-3.674-1.413-7.913-.919-1.06.142-3.674 2.614-6.218 3.109-2.543.565.283 4.098 3.745 3.038s6.358-.141 6.358-.141-3.532 2.826-4.45 3.532c-.919.707-1.555 4.31-3.392 6.924-.777 1.06.07 3.603 3.109 2.755 0 0-1.978 2.402.424 3.392 1.483.494 2.685.14 3.744-.424 0 0-2.543 4.521-3.391 5.37-.848.847 1.484 3.461 3.815 2.19 2.402-1.414 4.875-3.957 5.44-5.017z"/>
            <g opacity=".2">
                <path fill="#9E4C28" d="M183.552 243.535c-2.402 2.685-12.505 1.2-11.022-3.038 0 0 4.169 3.886 8.62-.283 0 0 3.25 2.261 6.146 1.837 0 0-2.19-.353-3.744 1.484z"/>
                <path fill="#FCFCFC" d="M192.171 244.736c-1.2-1.696-3.462-4.804-4.097-6.712-.283-.99-3.674-1.413-7.913-.918-.424.07-1.06.494-1.837.989 1.2-.354 3.25-.777 6.146-.424 4.805.494 1.413 1.271 7.701 7.065z"/>
                <path fill="#FCFCFC" d="M185.671 242.263s1.979-1.201 3.25 1.413c1.272 2.544 2.756 2.12 4.593 5.299 0 0-2.19-.565-3.674-2.332-1.554-1.836-3.674-4.168-6.217-3.038-.071-.07 1.2-1.13 2.048-1.342zM187.014 248.41s2.26.282 2.331 4.027c0 0 .636-3.32 3.462-.707 0 0-4.027-5.51-5.793-3.32z"/>
                <g fill="#9E4C28">
                    <path d="M184.682 250.035s-.212.212-.565.494c.353-.282.565-.494.565-.494z"/>
                    <path d="M199.872 267.274c.283-.778.424-1.555.495-2.473-2.614 7.913-9.82-1.201-9.185-3.462.636-2.332-.565-4.098-.565-4.098.07.848-.07.848-1.766 2.897s-3.109 1.272-3.886-.636c-.777-1.908 2.685-4.875 2.685-4.875-2.332 1.554-2.685.353-4.24-1.06-1.06-.989.071-2.331.778-3.108-.919.706-2.826 1.766-4.31-.283-.918-1.272-.777-2.402-.424-3.32-.848 1.06-1.484 4.31-3.18 6.711-.776 1.06.071 3.604 3.11 2.756 0 0-1.979 2.402.423 3.391 1.484.495 2.685.141 3.745-.424 0 0-2.544 4.522-3.391 5.37-.848.847 1.483 3.461 3.815 2.19 2.331-1.272 4.875-3.815 5.44-4.875 0 0 .283 3.25 1.484 5.51 1.2 2.12 6.217 6.642 8.972-.211z"/>
                </g>
            </g>
            <path fill="#CC885A" d="M183.552 259.22c.424-.92.989-1.767 1.554-2.615.636-.848 1.201-1.625 2.19-2.26.424-.212.778-.566 1.413-.778.283-.07.636-.07.919.071.283.141.494.283.706.495.778.706 1.343 1.624 1.837 2.472-.706-.706-1.413-1.483-2.19-2.049-.212-.14-.424-.282-.565-.353a.78.78 0 0 0-.565 0c-.353.141-.777.495-1.272.707-.777.494-1.413 1.271-2.12 2.049l-1.907 2.26zM179.383 256.323l2.332-3.604.212-.423c.07-.212.212-.354.353-.495.212-.283.495-.565.777-.777.566-.495 1.13-.919 1.696-1.413a16.436 16.436 0 0 1 1.837-1.201c.283-.212.636-.353.989-.495.353-.141.777-.212 1.201-.141.424.07.777.353 1.06.636.282.282.494.565.777.848.424.565.919 1.13 1.413 1.625-.636-.424-1.13-.919-1.696-1.343-.494-.494-1.06-.989-1.625-1.13-.565-.07-1.2.282-1.766.636-.565.353-1.2.777-1.766 1.2-.565.425-1.13.849-1.696 1.343-.282.212-.494.495-.777.707-.141.14-.212.282-.282.353-.071.212-.212.353-.283.494a55.26 55.26 0 0 1-2.756 3.18zM184.046 243.11c.495-.564 1.202-1.059 1.979-1.27a2.537 2.537 0 0 1 1.271-.142c.495.07.848.353 1.13.706.566.636.92 1.343 1.273 1.979.353.635.777 1.271 1.413 1.625-.778-.071-1.413-.707-1.908-1.343-.495-.636-.848-1.271-1.342-1.766a1.343 1.343 0 0 0-.778-.495 2.328 2.328 0 0 0-.989 0c-.635.071-1.342.354-2.049.707z"/>
        </g>
        <g fill-rule="nonzero">
            <path fill="#EDAF80" d="M108.803 150.134s-16.038 13.141-25.293 24.798c-9.185 11.658-12.647 13.848-21.408 11.305-5.086-1.908-7.912-14.696 12.576-30.946 20.49-16.25 27.342-18.652 28.26-23.032 1.626-7.489 4.17-17.45-2.33-22.608 0 0 3.39-6.5 8.76 2.543 2.967 3.815 2.685 7.56 2.685 8.69s-.495 2.826 2.26 2.261c2.756-.565 24.587-2.543 33.207 10.174 1.2 1.484 0 6.712-4.875 2.967 0 0 1.06 1.201-.141 3.392-1.202 2.19-3.674.353-3.674.353s0 4.31-2.826 3.815c0 0 .424 4.522-2.897 4.168-3.32-.353-8.831-.989-13.565.919-4.734 1.907-10.74 1.2-10.74 1.2z"/>
            <path fill="#CC885A" d="M130.14 129.292c2.472.212 4.875.989 7.065 2.12 1.13.565 2.12 1.271 3.038 2.119.989.777 1.766 1.766 2.402 2.826-.919-.848-1.766-1.696-2.756-2.402a27.31 27.31 0 0 0-3.038-1.908c-1.06-.565-2.19-1.06-3.25-1.554a67.066 67.066 0 0 0-3.461-1.201zM138.83 140.101c-.777-.565-1.625-1.06-2.473-1.554-.848-.494-1.696-.918-2.544-1.342-.847-.424-1.766-.707-2.684-.99-.919-.282-1.837-.423-2.826-.565.989-.14 1.978-.14 2.967 0 .99.212 1.908.495 2.826.919 1.837.848 3.462 1.978 4.734 3.532zM136.004 143.917c-1.555-.424-2.968-.848-4.451-1.201-.707-.212-1.484-.354-2.261-.566-.777-.212-1.484-.353-2.261-.565 1.554-.212 3.18 0 4.663.424.777.212 1.484.424 2.26.777.707.353 1.414.707 2.05 1.13z"/>
            <g opacity=".2">
                <path fill="#9E4C28" d="M147.52 133.319c-1.272-1.837-2.826-3.391-4.593-4.734.283 1.625.142 4.38-4.168 4.169 0 0 0 6.217-7.418 3.108 0 0 2.12 4.169-1.555 6.076 0 0 .777 5.158-2.402 4.38-.424-.07-.848-.211-1.272-.282 1.696-1.413-1.13-4.804-.565-2.967.354 1.271-.777 2.26-1.625 2.826-5.44-.07-8.62 2.685-13.706 1.907-3.957-.635-1.272.566-8.337 5.511-11.304 7.842-35.467 46.065-43.45 26.141.07 3.674 1.695 6.076 3.673 6.783 8.761 2.543 12.152.282 21.408-11.305 9.255-11.586 25.293-24.798 25.293-24.798s6.076.777 10.81-1.13c4.733-1.908 10.315-1.272 13.565-.919s2.896-4.168 2.896-4.168c2.826.423 2.826-3.816 2.826-3.816s2.402 1.837 3.674-.353c1.272-2.19.142-3.391.142-3.391 4.804 3.674 6.005-1.554 4.804-3.038z"/>
                <path fill="#FCFCFC" d="M97.145 139.607c3.038-2.19 4.31-4.027 4.805-5.299-2.544 3.462-10.174 7.418-27.342 20.983-9.185 7.278-13.707 13.919-15.402 19.147 7.418-13.989 32.429-30.875 37.94-34.831zM102.939 132.26c-.141.635-.424 1.2-.848 1.836 3.18-3.391 4.804-15.19 3.815-18.793-.989-3.674-3.32-6.288-3.32-6.288.494-.848 1.978-1.13 2.826-1.201-3.038-1.555-4.805 1.837-4.805 1.837 6.5 5.157 3.957 15.12 2.332 22.608zM137.911 125.76c-.07 0-.141-.071-.212-.071-9.679-4.028-21.407-2.968-23.385-2.544h-.142c4.663-.07 14.555 1.625 16.18 1.06 1.271-.424 6.923 1.484 9.75 2.543-.636-.282-1.414-.636-2.19-.989z"/>
            </g>
            <path fill="#9E4C28" d="M130.917 124.487s-.424 3.038-1.696 3.957c-1.272.918 4.875-.99 1.696-3.957zM129.504 130.352s-.424 3.038-1.696 3.956c-1.272.918 4.875-.99 1.696-3.956zM127.455 136.569s-.424 3.038-1.696 3.956c-1.342.919 4.875-1.06 1.696-3.956z" opacity=".2"/>
        </g>
    </g>
</svg>
