<svg xmlns="http://www.w3.org/2000/svg" xmlns:xlink="http://www.w3.org/1999/xlink" width="235" height="76" viewBox="0 0 235 76">
    <defs>
        <path id="a" d="M.674.453h21.182v57.542H.674z"/>
        <path id="c" d="M0 .342h77.32V58H0z"/>
    </defs>
    <g fill="none" fill-rule="evenodd">
        <path fill="#F3FBF9" d="M204.505 18h-16.633c-.748 0-1.495.572-1.495 1.527V48.583l-16.819-29.247c-.374-.764-1.31-1.336-2.242-1.336h-16.82A1.49 1.49 0 0 0 149 19.527V74.48c0 .762.934 1.519 1.682 1.519h16.633a1.49 1.49 0 0 0 1.495-1.527V46.468l16.82 28.197c.558.813 1.308 1.335 2.242 1.335h16.633A1.49 1.49 0 0 0 206 74.474V19.527c0-.764-.561-1.527-1.495-1.527"/>
        <g transform="translate(213 18)">
            <mask id="b" fill="#fff">
                <use xlink:href="#a"/>
            </mask>
            <path fill="#F3FBF9" d="M11.284 3.173C8.228 3.15 4.598 2.48.674.453v56.026c0 .758.578 1.516 1.54 1.516h18.102a1.6 1.6 0 0 0 .54-.096l.03-.01c.083-.03.16-.07.232-.112l.035-.02a1.37 1.37 0 0 0 .166-.123c.031-.026.061-.051.09-.079.029-.029.054-.058.08-.088a1.5 1.5 0 0 0 .125-.164l.02-.034c.044-.072.082-.147.114-.228l.01-.03a1.477 1.477 0 0 0 .098-.532V.453c-3.909 2.018-7.525 2.691-10.572 2.72" mask="url(#b)"/>
        </g>
        <path fill="#F3FBF9" d="M235 10.392C235 4.158 230.645 0 224 0c-6.646 0-11 3.926-11 10.392 0 7.453 21.66 7.502 22 0M112.5 58.267c-5.902 0-10.687-5.044-10.687-11.267 0-6.222 4.785-11.266 10.687-11.266 5.902 0 10.687 5.044 10.687 11.266 0 6.223-4.785 11.267-10.687 11.267m0-40.267C95.103 18 81 30.984 81 47c0 16.017 14.103 29 31.5 29S144 63.017 144 47c0-16.016-14.103-29-31.5-29"/>
        <g transform="translate(0 18)">
            <mask id="d" fill="#fff">
                <use xlink:href="#c"/>
            </mask>
            <path fill="#F3FBF9" d="M68.165 1.855C67.98 1.1 67.235.347 66.304.347H48.252c-.93 0-1.675.754-1.86 1.508 0 0-5.735 22.642-7.328 28.448-.233.847-.38 1.34-.404 1.34-.186 0-7.73-29.794-7.73-29.794-.187-.753-.931-1.507-1.862-1.507H11.016c-.93 0-1.675.754-1.861 1.507L.035 56.487c-.186.753.373 1.507 1.303 1.507h16.936c.93 0 1.675-.754 1.675-1.507l2.706-29.141 8.832 29.141c.373.754 1.117 1.507 2.048 1.507h2.891V58h7.36c.93 0 1.675-.753 2.047-1.507l8.832-29.142 2.706 29.142c0 .753.744 1.506 1.675 1.506h16.936c.93 0 1.489-.753 1.303-1.506l-9.12-54.638z" mask="url(#d)"/>
        </g>
    </g>
</svg>
